<?xml version="1.0" encoding="UTF-8" standalone="no"?>
<!-- Created with Inkscape (http://www.inkscape.org/) -->

<svg
   width="700pt"
   height="700pt"
   viewBox="0 0 933.333 933.333"
   version="1.1"
   id="queen"
   inkscape:version="1.2.1 (9c6d41e410, 2022-07-14)"
   sodipodi:docname="q.svg"
   xmlns:inkscape="http://www.inkscape.org/namespaces/inkscape"
   xmlns:sodipodi="http://sodipodi.sourceforge.net/DTD/sodipodi-0.dtd"
   xmlns:xlink="http://www.w3.org/1999/xlink"
   xmlns="http://www.w3.org/2000/svg"
   xmlns:svg="http://www.w3.org/2000/svg">
  <sodipodi:namedview
     id="namedview1199"
     pagecolor="#ffffff"
     bordercolor="#000000"
     borderopacity="0.25"
     inkscape:showpageshadow="2"
     inkscape:pageopacity="0.0"
     inkscape:pagecheckerboard="0"
     inkscape:deskcolor="#d1d1d1"
     inkscape:document-units="mm"
     showgrid="false"
     inkscape:zoom="0.27244394"
     inkscape:cx="88.091517"
     inkscape:cy="238.58119"
     inkscape:window-width="1499"
     inkscape:window-height="749"
     inkscape:window-x="97"
     inkscape:window-y="99"
     inkscape:window-maximized="0"
     inkscape:current-layer="svg1197" />
  <style
     id="style-base">
    .base { 
      fill-opacity:1;
      fill-rule:evenodd;
      stroke-miterlimit:4;
      stroke-dasharray:none;
      stroke-linecap:round;
      stroke-linejoin:round;
      stroke-opacity:1
    }
  </style>
  <style
     id="stroke-medium">
    .stroke-medium {
      stroke-width: 18;
    }
  </style>
  <style
     id="stroke-heavy">
    .stroke-heavy {
      stroke-width: 21;
    }
  </style>
  <style
     id="stroke-boundary">
    .stroke-boundary {
      stroke-width: 30;
    }
  </style>
  <style
     id="stroke-color">
    .stroke-color {
      stroke:#ff0000;
    }
  </style>
  <style
     id="fill-color">
    .fill-color {
      fill:#00ff00;
    }
  </style>
  <defs
     id="defs1194">
    <linearGradient
       inkscape:collect="always"
       xlink:href="#fillGradient"
       id="main-gradient"
       gradientUnits="userSpaceOnUse"
       gradientTransform="matrix(6.2484782,0,0,7.1239612,-3974.8438,-259.44797)"
       x1="660.51819"
       y1="90.376785"
       x2="757.72223"
       y2="103.71878" />
    <linearGradient
       id="fillGradient">
      <stop
         id="stop0"
         offset="0"
         style="stop-color:#ffffff;stop-opacity:1;" />
      <stop
         id="stop1"
         offset="1"
         style="stop-color:#00ffff;stop-opacity:1;" />
    </linearGradient>
  </defs>
  <path
     sodipodi:nodetypes="cscccssscccsssscsssssssssscsssscccsc"
     id="boundary"
     d="m 598.72777,62.443286 c -29.08963,0 -52.69293,21.42166 -52.69293,47.833734 0,17.11582 9.99528,32.08487 24.89084,40.54195 C 528.44981,255.70931 488.21785,352.17786 454.4772,458.96711 421.88716,362.91548 390.9405,261.70264 351.56582,155.04819 c 15.84826,-8.25324 26.49195,-23.64995 26.49202,-41.417 0,-26.412024 -23.60335,-47.979524 -52.69296,-47.979524 -29.08962,0 -52.6929,21.5675 -52.69294,47.979524 0,23.2005 18.21188,42.44759 42.35813,46.8129 0.0336,111.91335 22.89465,170.8378 -17.17612,327.68994 -60.69386,-116.34396 -96.04731,-166.00539 -170.7426,-275.33538 8.20247,-8.43637 13.24602,-19.51664 13.24602,-31.64612 0,-26.41202 -23.60333,-47.83367 -52.692963,-47.83367 -29.08966,0 -52.69295,21.42165 -52.69295,47.83367 0,26.41207 23.60334,47.83374 52.69295,47.83374 0.0981,0 0.19321,4.7e-4 0.29121,0 49.939673,127.22252 71.157453,188.55765 114.492693,306.12089 13.76612,37.34572 45.29236,38.64973 62.67455,81.32977 7.58259,18.61828 11.22214,92.33399 -28.25872,116.84476 -5.98234,3.71403 -80.57684,18.56858 -84.86182,24.06273 -32.07745,41.12986 -14.91511,109.80455 45.26934,113.75083 42.27423,2.77191 481.37108,3.51557 525.0372,-1.3124 67.00258,-7.40842 77.35234,-77.4649 46.43379,-116.23009 -4.73575,-5.93731 -71.62071,-13.66615 -86.46297,-24.646 -27.10614,-20.05242 -40.41708,-87.51017 -34.06395,-112.90727 9.64869,-38.57165 45.60354,-35.51117 55.33039,-67.7538 42.40175,-140.55448 77.79088,-193.50656 138.41353,-319.55101 1.44454,0.1076 2.89169,0.29174 4.36684,0.29174 29.08959,0 52.693,-21.42166 52.69292,-47.83374 0,-26.41202 -23.60341,-47.83367 -52.69292,-47.83367 -29.08963,0 -52.69297,21.42165 -52.69297,47.83367 0,12.3448 5.21871,23.59359 13.68271,32.08362 -98.12862,117.97771 -129.39386,161.29672 -200.87364,279.27288 -25.61492,-125.22486 -0.34621,-216.05162 5.96796,-336.14832 22.46675,-5.47252 39.01026,-23.96566 39.01026,-46.08369 0,-26.412064 -23.60341,-47.833734 -52.69293,-47.833734 z"
     class="base stroke-color stroke-boundary"
     style="fill:none"
     inkscape:connector-curvature="0" />
  <path
     sodipodi:nodetypes="cscccssscccsssscsssssssssscsssscccsc"
     id="main"
     d="m 598.72777,62.443286 c -29.08963,0 -52.69293,21.42166 -52.69293,47.833734 0,17.11582 9.99528,32.08487 24.89084,40.54195 C 528.44981,255.70931 488.21785,352.17786 454.4772,458.96711 421.88716,362.91548 390.9405,261.70264 351.56582,155.04819 c 15.84826,-8.25324 26.49195,-23.64995 26.49202,-41.417 0,-26.412024 -23.60335,-47.979524 -52.69296,-47.979524 -29.08962,0 -52.6929,21.5675 -52.69294,47.979524 0,23.2005 18.21188,42.44759 42.35813,46.8129 0.0336,111.91335 22.89465,170.8378 -17.17612,327.68994 -60.69386,-116.34396 -96.04731,-166.00539 -170.7426,-275.33538 8.20247,-8.43637 13.24602,-19.51664 13.24602,-31.64612 0,-26.41202 -23.60333,-47.83367 -52.692963,-47.83367 -29.08966,0 -52.69295,21.42165 -52.69295,47.83367 0,26.41207 23.60334,47.83374 52.69295,47.83374 0.0981,0 0.19321,4.7e-4 0.29121,0 49.939673,127.22252 71.157453,188.55765 114.492693,306.12089 13.76612,37.34572 45.29236,38.64973 62.67455,81.32977 7.58259,18.61828 11.22214,92.33399 -28.25872,116.84476 -5.98234,3.71403 -80.57684,18.56858 -84.86182,24.06273 -32.07745,41.12986 -14.91511,109.80455 45.26934,113.75083 42.27423,2.77191 481.37108,3.51557 525.0372,-1.3124 67.00258,-7.40842 77.35234,-77.4649 46.43379,-116.23009 -4.73575,-5.93731 -71.62071,-13.66615 -86.46297,-24.646 -27.10614,-20.05242 -40.41708,-87.51017 -34.06395,-112.90727 9.64869,-38.57165 45.60354,-35.51117 55.33039,-67.7538 42.40175,-140.55448 77.79088,-193.50656 138.41353,-319.55101 1.44454,0.1076 2.89169,0.29174 4.36684,0.29174 29.08959,0 52.693,-21.42166 52.69292,-47.83374 0,-26.41202 -23.60341,-47.83367 -52.69292,-47.83367 -29.08963,0 -52.69297,21.42165 -52.69297,47.83367 0,12.3448 5.21871,23.59359 13.68271,32.08362 -98.12862,117.97771 -129.39386,161.29672 -200.87364,279.27288 -25.61492,-125.22486 -0.34621,-216.05162 5.96796,-336.14832 22.46675,-5.47252 39.01026,-23.96566 39.01026,-46.08369 0,-26.412064 -23.60341,-47.833734 -52.69293,-47.833734 z"
     class="base stroke-color stroke-medium"
     style="fill:url(#main-gradient)"
     inkscape:connector-curvature="0" />
  <path
     id="deco-lines"
     class="base stroke-color stroke-medium"
     style="opacity:0.5;fill:none"
     d="m 283.85718,578.36528 h 316.87809 z m 12.6146,139.13432 h 242.33894 z m -55.89983,74.66676 h 428.66864 z" />
  <path
     class="base stroke-color stroke-medium"
     style="opacity:0.5;fill:none"
     d="m 583.61561,493.90844 c -25.61492,-125.22486 -0.34621,-216.05161 5.96796,-336.14831 22.46667,-5.47253 39.01026,-23.96567 39.01026,-46.0837 0,-26.412064 -23.60345,-38.500294 -52.69297,-38.500294 M 699.48184,871.18218 c 67.00258,-7.40838 77.35234,-68.13145 46.43383,-106.89668 -4.73575,-5.93727 -71.62075,-13.66611 -86.46301,-24.646 -27.10613,-20.05242 -40.41708,-106.17694 -34.06399,-131.57408 9.64877,-38.57165 45.60362,-35.51117 55.3304,-67.7538 42.40182,-140.55452 77.79091,-184.17314 138.4136,-310.21759 1.44454,0.1076 2.89169,0.29174 4.3668,0.29174 29.08963,0 52.693,-21.42166 52.69296,-47.83374 0,-26.41202 -23.60341,-38.50029 -52.69296,-38.50029"
     id="deco-side"
     sodipodi:nodetypes="ccsccsssscsss"
     inkscape:connector-curvature="0" />
</svg>
