<?xml version="1.0" encoding="UTF-8" standalone="no"?>
<!-- Created with Inkscape (http://www.inkscape.org/) -->

<svg
   width="700pt"
   height="700pt"
   id="pawn"
   viewBox="0 0 933.333 933.333"
   sodipodi:version="0.32"
   inkscape:version="1.1.2 (0a00cf5339, 2022-02-04)"
   version="1.0"
   inkscape:export-filename="/home/maurizio/out/wp.png"
   inkscape:export-xdpi="90"
   inkscape:export-ydpi="90"
   sodipodi:docname="p_alt2.svg"
   xmlns:inkscape="http://www.inkscape.org/namespaces/inkscape"
   xmlns:sodipodi="http://sodipodi.sourceforge.net/DTD/sodipodi-0.dtd"
   xmlns:xlink="http://www.w3.org/1999/xlink"
   xmlns="http://www.w3.org/2000/svg"
   xmlns:svg="http://www.w3.org/2000/svg"
   xmlns:rdf="http://www.w3.org/1999/02/22-rdf-syntax-ns#"
   xmlns:cc="http://creativecommons.org/ns#"
   xmlns:dc="http://purl.org/dc/elements/1.1/">
  <style
     id="style-base">
    .base { 
      fill-opacity:1;
      fill-rule:evenodd;
      stroke-miterlimit:4;
      stroke-dasharray:none;
      stroke-linecap:round;
      stroke-linejoin:round;
      stroke-opacity:1
    }
    .shadow {
      stroke:none;
      filter:url(#filterBlur);
    }
  </style>
  <style
     id="stroke-medium">
    .stroke-medium {
      stroke-width: 18;
    }
  </style>
  <style
     id="stroke-boundary">
    .stroke-boundary {
      stroke-width: 30;
    }
  </style>
  <style
     id="stroke-color">
    .stroke-color {
      stroke:#ff0000;
    }
  </style>
  <style
     id="fill-color">
    .fill-color {
      fill:#00ff00;
    }
  </style>
  <defs
     id="defs36222">
    <linearGradient
       id="fillGradient">
      <stop
         style="stop-color:#ffffff;stop-opacity:1;"
         offset="0"
         id="stop0" />
      <stop
         style="stop-color:#00ffff;stop-opacity:1;"
         offset="1"
         id="stop1" />
    </linearGradient>
    <linearGradient
       inkscape:collect="always"
       xlink:href="#fillGradient"
       id="main-gradient"
       x1="250.33334"
       y1="541.66669"
       x2="671.33337"
       y2="718.33331"
       gradientUnits="userSpaceOnUse"
       gradientTransform="matrix(0.6480516,0,0,0.6480516,170.01607,7.692475)" />
    <linearGradient
       inkscape:collect="always"
       xlink:href="#fillGradient"
       id="body-gradient"
       x1="185.76682"
       y1="924.38446"
       x2="796.07629"
       y2="1042.4318"
       gradientUnits="userSpaceOnUse"
       gradientTransform="matrix(0.6480516,0,0,0.6480516,170.01607,-2.307525)" />
    <filter
       style="color-interpolation-filters:sRGB;"
       id="filterBlur"
       x="-0.32031364"
       y="-0.22511679"
       width="1.6406273"
       height="1.4502336">
      <feGaussianBlur
         stdDeviation="50 50"
         result="blur"
         id="feGaussianBlur13" />
    </filter>
  </defs>
  <sodipodi:namedview
     id="base"
     pagecolor="#ffffff"
     bordercolor="#666666"
     borderopacity="1.0"
     inkscape:pageopacity="0.0"
     inkscape:pageshadow="2"
     inkscape:zoom="1.2"
     inkscape:cx="324.16667"
     inkscape:cy="320.41667"
     inkscape:current-layer="pawn"
     inkscape:document-units="px"
     inkscape:window-width="1535"
     inkscape:window-height="969"
     inkscape:window-x="26"
     inkscape:window-y="23"
     inkscape:showpageshadow="2"
     inkscape:pagecheckerboard="0"
     inkscape:deskcolor="#d1d1d1"
     showgrid="false"
     inkscape:window-maximized="0" />
  <metadata
     id="metadata36225">
    <rdf:RDF>
      <cc:Work
         rdf:about="">
        <dc:format>image/svg+xml</dc:format>
        <dc:type
           rdf:resource="http://purl.org/dc/dcmitype/StillImage" />
        <dc:creator>
          <cc:Agent>
            <dc:title>Maurizio Monge</dc:title>
          </cc:Agent>
        </dc:creator>
        <dc:rights>
          <cc:Agent>
            <dc:title>Maurizio Monge</dc:title>
          </cc:Agent>
        </dc:rights>
        <cc:license
           rdf:resource="http://creativecommons.org/licenses/GPL/2.0/" />
      </cc:Work>
      <cc:License
         rdf:about="http://creativecommons.org/licenses/GPL/2.0/">
        <cc:permits
           rdf:resource="http://web.resource.org/cc/Reproduction" />
        <cc:permits
           rdf:resource="http://web.resource.org/cc/Distribution" />
        <cc:requires
           rdf:resource="http://web.resource.org/cc/Notice" />
        <cc:permits
           rdf:resource="http://web.resource.org/cc/DerivativeWorks" />
        <cc:requires
           rdf:resource="http://web.resource.org/cc/ShareAlike" />
        <cc:requires
           rdf:resource="http://web.resource.org/cc/SourceCode" />
      </cc:License>
    </rdf:RDF>
  </metadata>
  <path
     id="shadow"
     style="fill:#000000"
     class="base shadow"
     d="m 464.87891,303.875 c -65.01947,4.8e-4 -117.72805,53.67619 -117.72852,119.88867 0.0387,29.7479 26.65925,58.39105 46.53906,80.4043 -91.17934,70.55501 -22.46333,77.66344 68.625,114.50976 91.68969,-45.03427 165.24837,-55.65894 74.14063,-114.70703 21.85273,-21.91227 46.08916,-50.41944 46.1543,-80.20703 C 582.60891,357.55041 529.89914,303.87439 464.87891,303.875 Z m -2.56446,314.80273 C 388.78469,654.79258 303.88713,713.0858 283.50586,836.68555 l 374.63281,0.24609 C 634.10527,703.43422 540.15134,650.16369 462.31445,618.67773 Z m 0.13086,-209.9707 c 46.97659,-2.2e-4 69.05872,38.78059 69.0586,86.61914 -0.002,1.77949 -0.0778,3.55562 -0.1875,5.33008 -7.03544,-4.40222 -14.64696,-8.97714 -23.49219,-13.93555 l -91.88086,1.08594 c -8.21703,5.72664 -15.31087,10.99251 -21.84766,16.03711 -0.36731,-2.82644 -0.61703,-5.66767 -0.70898,-8.51758 -1.2e-4,-47.83854 22.082,-86.61935 69.05859,-86.61914 z" />
  <path
     style="fill:none"
     class="base stroke-color stroke-boundary"
     d="m 464.87891,303.875 c -65.01947,4.8e-4 -117.72805,53.67619 -117.72852,119.88867 0.0387,29.7479 26.65925,58.39105 46.53906,80.4043 -0.46145,0.35707 -0.91881,0.71252 -1.37209,1.06636 -89.11114,69.56136 -20.63025,76.78356 69.99709,113.4434 90.40384,-44.40271 163.18163,-55.35417 77.87696,-112.2511 -1.21333,-0.80927 -2.45864,-1.62784 -3.73633,-2.45593 21.85273,-21.91227 46.08916,-50.41944 46.1543,-80.20703 C 582.60891,357.55041 529.89914,303.87439 464.87891,303.875 Z m -2.56446,314.80273 C 388.78469,654.79258 303.88713,713.0858 283.50586,836.68555 l 374.63281,0.24609 C 634.10527,703.43422 540.15134,650.16369 462.31445,618.67773 Z"
     id="boundary"
     sodipodi:nodetypes="cccscsccccccc" />
  <path
     id="main"
     style="fill:url(#main-gradient)"
     class="base stroke-color stroke-medium"
     d="m 464.87891,303.875 c -65.01947,4.8e-4 -117.72805,53.67619 -117.72852,119.88867 0.039,29.99269 27.11592,58.88116 47.04492,80.96485 -0.43713,-3.11682 -0.70706,-6.2556 -0.80859,-9.40235 -1.2e-4,-47.83854 22.082,-86.61935 69.05859,-86.61914 46.97659,-2.2e-4 69.05872,38.78059 69.0586,86.61914 -0.006,4.97343 -0.4328,9.93708 -1.27539,14.83594 23.17117,-22.55502 52.30948,-53.75628 52.38086,-86.39844 C 582.60891,357.55041 529.89914,303.87439 464.87891,303.875 Z"
     sodipodi:nodetypes="ccccccccc" />
  <path
     style="fill:url(#body-gradient)"
     d="M 283.50679,836.68618 C 331.61417,544.94482 739.40994,616.54039 507.82503,486.71991 l -91.88152,1.08724 c -222.13869,154.81357 187.98752,48.01797 242.19556,349.12531 z"
     id="body"
     sodipodi:nodetypes="ccccc"
     class="base stroke-color stroke-medium" />
</svg>
