<?xml version="1.0" encoding="UTF-8" standalone="no"?>
<!-- Created with Inkscape (http://www.inkscape.org/) -->

<svg
   width="700pt"
   height="700pt"
   id="bishop"
   viewBox="0 0 933.333 933.333"
   sodipodi:version="0.32"
   inkscape:version="1.1.2 (0a00cf5339, 2022-02-04)"
   version="1.0"
   inkscape:export-filename="/home/maurizio/out/wb.png"
   inkscape:export-xdpi="90"
   inkscape:export-ydpi="90"
   sodipodi:docname="b.svg"
   xmlns:inkscape="http://www.inkscape.org/namespaces/inkscape"
   xmlns:sodipodi="http://sodipodi.sourceforge.net/DTD/sodipodi-0.dtd"
   xmlns:xlink="http://www.w3.org/1999/xlink"
   xmlns="http://www.w3.org/2000/svg"
   xmlns:svg="http://www.w3.org/2000/svg"
   xmlns:rdf="http://www.w3.org/1999/02/22-rdf-syntax-ns#"
   xmlns:cc="http://creativecommons.org/ns#"
   xmlns:dc="http://purl.org/dc/elements/1.1/">
  <style
     id="style-base">
    .base { 
      fill-opacity:1;
      fill-rule:evenodd;
      stroke-miterlimit:4;
      stroke-dasharray:none;
      stroke-linecap:round;
      stroke-linejoin:round;
      stroke-opacity:1
    }
    .shadow {
      stroke:none;
      filter:url(#filterBlur);
    }
  </style>
  <style
     id="stroke-medium">
    .stroke-medium {
      stroke-width: 18;
    }
  </style>
  <style
     id="stroke-boundary">
    .stroke-boundary {
      stroke-width: 30;
    }
  </style>
  <style
     id="stroke-color">
    .stroke-color {
      stroke:#ff0000;
    }
  </style>
  <style
     id="fill-color">
    .fill-color {
      fill:#00ff00;
    }
  </style>
  <defs
     id="defs36222">
    <linearGradient
       id="fillGradient">
      <stop
         style="stop-color:#ffffff;stop-opacity:1;"
         offset="0"
         id="stop0" />
      <stop
         style="stop-color:#00ffff;stop-opacity:1;"
         offset="1"
         id="stop1" />
    </linearGradient>
    <linearGradient
       inkscape:collect="always"
       xlink:href="#fillGradient"
       id="hat-back-gradient"
       gradientUnits="userSpaceOnUse"
       x1="130.98332"
       y1="444.83487"
       x2="720.01697"
       y2="623.16821"
       gradientTransform="matrix(1.1402574,0,0,1.0926859,-36.622756,-49.02835)" />
    <linearGradient
       inkscape:collect="always"
       xlink:href="#fillGradient"
       id="right-shoulder-gradient"
       gradientUnits="userSpaceOnUse"
       x1="130.98332"
       y1="444.83487"
       x2="720.01697"
       y2="623.16821"
       gradientTransform="matrix(1.0836502,-0.02393683,0.02393683,1.0836502,-20.096124,-4.0251195)" />
    <linearGradient
       inkscape:collect="always"
       xlink:href="#fillGradient"
       id="left-shoulder-gradient"
       gradientUnits="userSpaceOnUse"
       x1="130.98332"
       y1="444.83487"
       x2="720.01697"
       y2="623.16821"
       gradientTransform="matrix(1.0814596,0.07290913,-0.07290913,1.0814596,68.647225,-22.462719)" />
    <linearGradient
       inkscape:collect="always"
       xlink:href="#fillGradient"
       id="hat-front-gradient"
       gradientUnits="userSpaceOnUse"
       gradientTransform="matrix(1.1402574,0,0,1.0926859,-36.622756,-49.02835)"
       x1="130.98332"
       y1="444.83487"
       x2="720.01697"
       y2="623.16821" />
    <filter
       style="color-interpolation-filters:sRGB;"
       id="filterBlur"
       x="-0.19086554"
       y="-0.16337513"
       width="1.3817311"
       height="1.3267503">
      <feGaussianBlur
         stdDeviation="50 50"
         result="blur"
         id="feGaussianBlur13" />
    </filter>
  </defs>
  <sodipodi:namedview
     id="base"
     pagecolor="#ffffff"
     bordercolor="#666666"
     borderopacity="1.0"
     inkscape:pageopacity="0.0"
     inkscape:pageshadow="2"
     inkscape:zoom="1.4142136"
     inkscape:cx="271.17545"
     inkscape:cy="665.38747"
     inkscape:current-layer="bishop"
     inkscape:document-units="px"
     inkscape:window-width="1846"
     inkscape:window-height="1016"
     inkscape:window-x="0"
     inkscape:window-y="0"
     inkscape:showpageshadow="2"
     inkscape:pagecheckerboard="0"
     inkscape:deskcolor="#d1d1d1"
     showgrid="false"
     inkscape:window-maximized="1" />
  <metadata
     id="metadata36225">
    <rdf:RDF>
      <cc:Work
         rdf:about="">
        <dc:format>image/svg+xml</dc:format>
        <dc:type
           rdf:resource="http://purl.org/dc/dcmitype/StillImage" />
        <dc:creator>
          <cc:Agent>
            <dc:title>Maurizio Monge</dc:title>
          </cc:Agent>
        </dc:creator>
        <dc:rights>
          <cc:Agent>
            <dc:title>Maurizio Monge</dc:title>
          </cc:Agent>
        </dc:rights>
        <cc:license
           rdf:resource="http://creativecommons.org/licenses/GPL/2.0/" />
      </cc:Work>
      <cc:License
         rdf:about="http://creativecommons.org/licenses/GPL/2.0/">
        <cc:permits
           rdf:resource="http://web.resource.org/cc/Reproduction" />
        <cc:permits
           rdf:resource="http://web.resource.org/cc/Distribution" />
        <cc:requires
           rdf:resource="http://web.resource.org/cc/Notice" />
        <cc:permits
           rdf:resource="http://web.resource.org/cc/DerivativeWorks" />
        <cc:requires
           rdf:resource="http://web.resource.org/cc/ShareAlike" />
        <cc:requires
           rdf:resource="http://web.resource.org/cc/SourceCode" />
      </cc:License>
    </rdf:RDF>
  </metadata>
  <path
     id="shadow"
     style="fill:#000"
     class="base shadow"
     d="M 448.98047 48 C 447.64439 48.08343 446.15069 48.28765 444.49023 48.613281 C 402.59075 56.830161 403.36082 78.676902 425.01758 113.03906 C 453.68591 71.737343 468.72171 46.767277 448.98047 48 z M 425.01758 113.03906 C 393.53774 158.39124 345.60378 223.45485 308.84375 295.58984 C 237.76966 435.06007 221.5577 571.03465 331.19922 703.63867 C 348.2919 714.17387 350.17413 750.04194 336.9043 781.17383 L 411.40625 780.66211 C 293.25459 822.1674 76.736233 842.687 85.378906 881.04688 C 85.378906 881.04688 319.61263 895.0203 399.50781 846.68555 C 427.6119 829.68323 446.34938 801.60614 457.35352 780.3457 L 496.86523 780.07422 C 503.83351 799.4341 514.24868 819.67716 529.42969 831.13672 C 612.88395 894.13311 851.53906 879.59375 851.53906 879.59375 C 852.2986 827.03874 667.47713 826.66914 554.59766 779.67773 L 596.41992 779.39062 C 582.69637 748.57895 584.9843 711.63029 608.73828 692.26758 C 622.64185 666.75784 632.19031 641.08834 638.21875 615.49219 C 673.63396 527.31694 690.51068 412.94975 645.30078 312.54492 C 609.53519 233.11458 563.57438 175.01807 542.44336 135.32617 C 528.14051 154.21802 510.85796 176.84537 492.96094 202.00586 C 464.93764 166.54804 439.95316 136.73694 425.01758 113.03906 z M 542.44336 135.32617 C 573.43221 94.394714 590.62685 70.214984 570.7832 71.640625 C 569.45931 71.735738 567.971 71.9439 566.31055 72.269531 C 524.40246 80.488097 524.21181 101.08057 542.44336 135.32617 z M 438.28516 369.74414 C 440.95758 370.05447 444.50265 372.64115 449.14844 378.36523 C 466.26495 399.4545 457.22641 440.53265 507.3125 454.08594 C 518.81981 457.19982 562.74964 473.94106 530.66797 478.59375 C 506.08124 482.15948 454.08987 471.56466 447.64062 476.51562 C 442.99516 480.08188 452.80737 524.46226 457.59375 547.75 C 462.85372 573.34195 468.30579 626.90052 462.36914 633.18555 C 442.59087 654.12445 427.64223 579.40931 425.55664 553.94922 C 423.34816 526.98897 406.47394 502.31028 380.32031 496.13672 C 344.84651 487.76314 317.09907 458.36824 361.97461 461.66797 C 375.86228 462.68914 425.66586 475.65508 434.21289 464.66602 C 438.10919 459.65652 438.36479 442.83422 434.44336 423.86523 C 431.53543 409.79884 426.70467 368.39937 438.28516 369.74414 z " />
  <path
     id="boundary"
     style="fill:none"
     class="base stroke-color stroke-boundary"
     d="M 448.98047 48 C 447.64439 48.08343 446.15069 48.287653 444.49023 48.613281 C 402.59089 56.830137 403.36088 78.677001 425.01758 113.03906 C 453.68583 71.737464 468.72165 46.76728 448.98047 48 z M 425.01758 113.03906 C 393.53783 158.39112 345.60366 223.45508 308.84375 295.58984 C 237.76987 435.05965 221.55803 571.03504 331.19922 703.63867 C 348.29184 714.17384 350.17407 750.04203 336.9043 781.17383 L 411.40625 780.66211 C 293.25471 822.16736 76.736242 842.68704 85.378906 881.04688 C 85.378906 881.04688 319.61271 895.02025 399.50781 846.68555 C 427.61188 829.68325 446.34939 801.60612 457.35352 780.3457 L 496.86523 780.07422 C 503.8335 799.43406 514.2487 819.67719 529.42969 831.13672 C 612.88377 894.13299 851.53906 879.59375 851.53906 879.59375 C 852.2986 827.03884 667.4769 826.66905 554.59766 779.67773 L 596.41992 779.39062 C 582.69643 748.57907 584.98439 711.63023 608.73828 692.26758 C 622.64182 666.75791 632.19038 641.08831 638.21875 615.49219 C 673.63395 527.31731 690.51055 412.94945 645.30078 312.54492 C 609.5353 233.11482 563.57432 175.01795 542.44336 135.32617 C 528.13149 154.22992 510.84168 176.86965 492.93164 202.05078 C 464.80345 166.50985 439.96433 136.75468 425.01758 113.03906 z M 542.44336 135.32617 C 575.49957 91.664057 592.85933 67.063062 566.31055 72.269531 C 524.40258 80.488073 524.21187 101.08068 542.44336 135.32617 z " />
  <path
     sodipodi:nodetypes="ccsc"
     class="base stroke-color stroke-medium"
     style="fill:url(#left-shoulder-gradient)"
     d="m 469.75049,751.53813 c -75.953,62.8607 -394.82103,83.12855 -384.371216,129.50928 0,0 234.232686,13.97366 314.127866,-34.36109 49.83751,-30.15053 70.24335,-95.14819 70.24335,-95.14819 z"
     id="left-shoulder" />
  <path
     id="right-shoulder"
     d="m 484.46219,730.27925 c 71.10282,99.97626 368.03964,82.74001 367.0775,149.31372 0,0 -238.6565,14.53966 -322.11076,-48.45673 -35.31391,-26.6571 -44.96674,-100.85699 -44.96674,-100.85699 z"
     class="base stroke-color stroke-medium"
     style="fill:url(#right-shoulder-gradient)"
     sodipodi:nodetypes="ccsc" />
  <path
     class="base stroke-color stroke-medium"
     style="fill:url(#hat-back-gradient)"
     d="M 566.30989,72.26992 C 619.44449,61.849724 496.72436,170.7992 424.22166,313.07278 635.1966,333.98056 576.49594,606.1297 610.41441,673.43699 662.13412,582.54631 701.26217,436.82554 645.30153,312.54483 578.67789,164.58312 475.82881,90.0141 566.30989,72.26992 Z"
     id="hat-back"
     sodipodi:nodetypes="sccss" />
  <path
     class="base stroke-color stroke-medium"
     style="fill:url(#hat-front-gradient)"
     d="m 444.48939,48.612407 c 53.1346,-10.420194 -63.14218,104.703813 -135.64486,246.977403 -71.07409,139.47023 -87.28695,275.44502 22.35457,408.04904 17.09268,10.5352 18.97442,46.40342 5.70459,77.53531 l 259.51587,-1.7828 C 582.69601,748.57969 584.98444,711.6306 608.73842,692.26789 688.40697,546.09509 627.86247,394.62074 552.33134,282.3312 461.22281,146.88328 354.00832,66.356589 444.48939,48.612407 Z M 429.74725,370.28645 c -2.29804,92.24636 36.38358,158.97567 35.10195,264.8683 -36.7557,21.14764 -28.27413,-95.53004 -52.62473,-122.60451 -21.33443,-23.72088 -85.79698,-18.79808 -68.85612,-51.90533 76.57084,-0.49689 125.41931,28.96733 201.44984,17.07461 6.75486,-20.31951 -49.36749,-22.88862 -65.19655,-36.02559 -21.28497,-17.66499 -25.34163,-85.43147 -49.87439,-71.40748 z"
     id="hat-front"
     sodipodi:nodetypes="ssccccssccsccsc" />
</svg>
