<?xml version="1.0" encoding="UTF-8" standalone="no"?>
<!-- Created with Inkscape (http://www.inkscape.org/) -->

<svg
   width="700pt"
   height="700pt"
   id="king"
   viewBox="0 0 933.333 933.333"
   sodipodi:version="0.32"
   inkscape:version="1.1.2 (0a00cf5339, 2022-02-04)"
   version="1.0"
   inkscape:export-filename="/home/maurizio/out/wk.png"
   inkscape:export-xdpi="90"
   inkscape:export-ydpi="90"
   sodipodi:docname="k.svg"
   xmlns:inkscape="http://www.inkscape.org/namespaces/inkscape"
   xmlns:sodipodi="http://sodipodi.sourceforge.net/DTD/sodipodi-0.dtd"
   xmlns:xlink="http://www.w3.org/1999/xlink"
   xmlns="http://www.w3.org/2000/svg"
   xmlns:svg="http://www.w3.org/2000/svg"
   xmlns:rdf="http://www.w3.org/1999/02/22-rdf-syntax-ns#"
   xmlns:cc="http://creativecommons.org/ns#"
   xmlns:dc="http://purl.org/dc/elements/1.1/">
  <style
     id="style-base">
    .base { 
      fill-opacity:1;
      fill-rule:evenodd;
      stroke-miterlimit:4;
      stroke-dasharray:none;
      stroke-linecap:round;
      stroke-linejoin:round;
      stroke-opacity:1
    }
    .shadow {
      stroke:none;
      filter:url(#filterBlur);
    }
  </style>
  <style
     id="stroke-medium">
    .stroke-medium {
      stroke-width: 18;
    }
  </style>
  <style
     id="stroke-boundary">
    .stroke-boundary {
      stroke-width: 30;
    }
  </style>
  <style
     id="stroke-color">
    .stroke-color {
      stroke:#ff0000;
    }
  </style>
  <style
     id="fill-color">
    .fill-color {
      fill:#00ff00;
    }
  </style>
  <defs
     id="defs36222">
    <linearGradient
       inkscape:collect="always"
       id="fillGradient">
      <stop
         style="stop-color:#ffffff;stop-opacity:1;"
         offset="0"
         id="stop0" />
      <stop
         style="stop-color:#00ffff;stop-opacity:1;"
         offset="1"
         id="stop1" />
    </linearGradient>
    <linearGradient
       inkscape:collect="always"
       xlink:href="#fillGradient"
       id="base-gradient"
       gradientUnits="userSpaceOnUse"
       x1="163.1134"
       y1="776.63849"
       x2="702.69696"
       y2="778.81091"
       gradientTransform="matrix(1.1091717,0,0,1.1091717,1.3658255,-39.600453)" />
    <linearGradient
       inkscape:collect="always"
       xlink:href="#fillGradient"
       id="main-gradient"
       gradientUnits="userSpaceOnUse"
       x1="150.07878"
       y1="255.25356"
       x2="694.0072"
       y2="740.0625"
       gradientTransform="matrix(1.1091717,0,0,1.1091717,-23.255604,-49.859382)" />
    <linearGradient
       inkscape:collect="always"
       xlink:href="#fillGradient"
       id="cross-gradient"
       x1="375.06781"
       y1="176.41568"
       x2="535.5755"
       y2="308.93436"
       gradientUnits="userSpaceOnUse"
       gradientTransform="matrix(1.1091717,0,0,1.1091717,-23.255604,-49.859382)" />
    <filter
       style="color-interpolation-filters:sRGB;"
       id="filterBlur"
       x="-0.19086554"
       y="-0.16337513"
       width="1.3817311"
       height="1.3267503">
      <feGaussianBlur
         stdDeviation="50 50"
         result="blur"
         id="feGaussianBlur13" />
    </filter>
  </defs>
  <sodipodi:namedview
     id="namedview325"
     pagecolor="#ffffff"
     bordercolor="#666666"
     borderopacity="1.0"
     inkscape:pageopacity="0.0"
     inkscape:pageshadow="2"
     inkscape:zoom="0.32549009"
     inkscape:cx="-379.42783"
     inkscape:cy="227.34947"
     inkscape:current-layer="king"
     inkscape:document-units="px"
     inkscape:window-width="1846"
     inkscape:window-height="1016"
     inkscape:window-x="0"
     inkscape:window-y="0"
     inkscape:showpageshadow="2"
     inkscape:pagecheckerboard="0"
     inkscape:deskcolor="#d1d1d1"
     showgrid="false"
     inkscape:window-maximized="1" />
  <metadata
     id="metadata36225">
    <rdf:RDF>
      <cc:Work
         rdf:about="">
        <dc:format>image/svg+xml</dc:format>
        <dc:type
           rdf:resource="http://purl.org/dc/dcmitype/StillImage" />
        <dc:creator>
          <cc:Agent>
            <dc:title>Maurizio Monge</dc:title>
          </cc:Agent>
        </dc:creator>
        <dc:rights>
          <cc:Agent>
            <dc:title>Maurizio Monge</dc:title>
          </cc:Agent>
        </dc:rights>
        <cc:license
           rdf:resource="http://creativecommons.org/licenses/GPL/2.0/" />
      </cc:Work>
      <cc:License
         rdf:about="http://creativecommons.org/licenses/GPL/2.0/">
        <cc:permits
           rdf:resource="http://web.resource.org/cc/Reproduction" />
        <cc:permits
           rdf:resource="http://web.resource.org/cc/Distribution" />
        <cc:requires
           rdf:resource="http://web.resource.org/cc/Notice" />
        <cc:permits
           rdf:resource="http://web.resource.org/cc/DerivativeWorks" />
        <cc:requires
           rdf:resource="http://web.resource.org/cc/ShareAlike" />
        <cc:requires
           rdf:resource="http://web.resource.org/cc/SourceCode" />
      </cc:License>
    </rdf:RDF>
  </metadata>
  <path
     id="shadow"
     style="fill:#000"
     class="base shadow"
     d="M 423.74609 72.160156 L 423.74609 138.29297 L 336.57227 138.29297 L 336.57227 213.75195 L 423.74609 213.75195 L 423.74609 349.5918 L 493.34766 349.5918 L 493.34766 213.75195 L 598.06055 213.75195 L 598.06055 138.29297 L 493.34766 138.29297 L 493.34766 72.160156 L 423.74609 72.160156 z M 191.19531 300.19531 C 122.21348 302.92952 71.178151 363.60172 81.005859 433.46289 C 101.1016 576.31523 264.14294 704.85666 260.83008 762.12305 L 669.94141 762.12305 C 663.38698 695.77263 847.31118 559.32009 853.19727 429.58008 C 858.84701 302.64021 639.76695 204.3272 543.37891 461.6582 C 764.92215 343.16208 693.9269 568.90782 583.98047 638.69336 C 513.14427 683.65474 476.10904 514.00743 513.6875 386.59961 L 418.75 387.74414 C 453.75837 500.48983 432.40816 673.74735 355.38867 638.69336 C 218.19708 576.25315 167.19586 346.51271 386.23242 461.76367 C 326.90136 340.4769 252.06163 297.78277 191.19531 300.19531 z M 221.35156 801.52148 L 221.35156 875.4668 L 704.51172 875.4668 L 704.51172 801.52148 L 221.35156 801.52148 z " />
  <path
     id="boundary"
     class="base stroke-color stroke-boundary"
     style="fill:none"
     d="M 493.34766,343.5918 V 213.75195 H 598.06055 V 138.29297 H 493.34766 V 72.160156 h -69.60157 v 66.132814 h -87.17382 v 75.45898 h 87.17382 V 343.5918 m -2.35836,53.1416 c 31.21258,112.69935 9.00066,276.09468 -65.99906,241.95996 C 218.19735,576.25329 167.1963,346.51295 386.23242,461.76367 326.90148,340.47714 252.06151,297.78278 191.19531,300.19531 122.21362,302.92952 71.178165,363.60186 81.005859,433.46289 100.37808,571.17203 252.58866,695.58276 260.55547,755.66351 m 409.32506,-0.0587 C 674.86786,687.12915 847.49775,555.20745 853.19727,429.58008 858.84699,302.64047 639.76675,204.32772 543.37891,461.6582 764.92169,343.16232 693.92668,568.90796 583.98047,638.69336 514.62785,682.71306 477.67513,521.01854 511.4244,394.65731 m -250.62095,410.86417 -39.45189,-2 v 71.94532 h 483.16016 v -71.94532 l -32.11913,2"
     sodipodi:nodetypes="cccccccccccccscssccccsccccccc" />
  <path
     class="base stroke-color stroke-medium"
     style="fill:url(#cross-gradient)"
     d="m 423.747,72.159496 v 66.134354 h -87.17396 v 75.45834 H 423.747 v 135.83887 h 69.60053 V 213.75219 H 598.06027 V 138.29385 H 493.34753 V 72.159496 Z"
     id="cross" />
  <path
     class="base stroke-color stroke-medium"
     style="fill:url(#main-gradient)"
     d="M 543.37829,461.6588 C 764.92153,343.16268 693.92769,568.90809 583.98126,638.69363 513.14506,683.65501 476.10904,514.00751 513.6875,386.59969 l -94.93816,1.14384 c 35.00837,112.74569 13.65804,286.00409 -63.36145,250.9501 C 218.1963,576.25342 167.19518,346.51307 386.23174,461.76403 259.6588,203.01892 62.507323,301.95882 81.006539,433.4622 101.10228,576.31454 264.14386,704.85726 260.831,762.12365 H 669.94206 C 663.38763,695.77323 847.31194,559.32011 853.19803,429.5801 858.84777,302.64023 639.76633,204.3278 543.37829,461.6588 Z"
     id="main"
     sodipodi:nodetypes="csccscsccsc" />
  <rect
     class="base stroke-color stroke-medium"
     style="fill:url(#base-gradient)"
     id="base"
     width="483.15958"
     height="73.944809"
     x="221.35155"
     y="801.52142" />
</svg>
