<?xml version="1.0" encoding="UTF-8" standalone="no"?>
<!-- Created with Inkscape (http://www.inkscape.org/) -->

<svg
   width="700pt"
   height="700pt"
   id="bishop"
   viewBox="0 0 933.333 933.333"
   sodipodi:version="0.32"
   inkscape:version="1.2.1 (9c6d41e410, 2022-07-14)"
   version="1.0"
   inkscape:export-filename="/home/maurizio/out/wb.png"
   inkscape:export-xdpi="90"
   inkscape:export-ydpi="90"
   sodipodi:docname="wb.svg"
   xmlns:inkscape="http://www.inkscape.org/namespaces/inkscape"
   xmlns:sodipodi="http://sodipodi.sourceforge.net/DTD/sodipodi-0.dtd"
   xmlns:xlink="http://www.w3.org/1999/xlink"
   xmlns="http://www.w3.org/2000/svg"
   xmlns:svg="http://www.w3.org/2000/svg"
   xmlns:rdf="http://www.w3.org/1999/02/22-rdf-syntax-ns#"
   xmlns:cc="http://creativecommons.org/ns#"
   xmlns:dc="http://purl.org/dc/elements/1.1/">
  <style
     id="style-base">
    .base { 
      fill-opacity:1;
      fill-rule:evenodd;
      stroke-miterlimit:4;
      stroke-dasharray:none;
      stroke-linecap:round;
      stroke-linejoin:round;
      stroke-opacity:1
    }
  </style>
  <style
     id="stroke-medium">
    .stroke-medium {
      stroke-width: 18;
    }
  </style>
  <style
     id="stroke-boundary">
    .stroke-boundary {
      stroke-width: 30;
    }
  </style>
  <style
     id="stroke-color">
    .stroke-color {
      stroke:#ff0000;
    }
  </style>
  <style
     id="fill-color">
    .fill-color {
      fill:#00ff00;
    }
  </style>
  <defs
     id="defs36222">
    <linearGradient
       id="fillGradient">
      <stop
         style="stop-color:#ffffff;stop-opacity:1"
         offset="0"
         id="stop0" />
      <stop
         style="stop-color:#00ffff;stop-opacity:1"
         offset="1"
         id="stop1" />
    </linearGradient>
    <linearGradient
       inkscape:collect="always"
       xlink:href="#fillGradient"
       id="shoulders-gradient"
       x1="136.09714"
       y1="629.62048"
       x2="784.78107"
       y2="865.10339"
       gradientUnits="userSpaceOnUse"
       gradientTransform="matrix(1.0605564,0,0,1.043155,13.756567,0.175931)" />
    <linearGradient
       inkscape:collect="always"
       xlink:href="#fillGradient"
       id="top-deco-1-gradient"
       x1="321.15759"
       y1="90.161285"
       x2="395.43152"
       y2="128.46291"
       gradientUnits="userSpaceOnUse"
       gradientTransform="matrix(1.0605564,0,0,1.043155,13.756567,0.175931)" />
    <linearGradient
       inkscape:collect="always"
       xlink:href="#fillGradient"
       id="top-deco-2-gradient"
       gradientUnits="userSpaceOnUse"
       x1="321.15759"
       y1="90.161285"
       x2="395.43152"
       y2="128.46291"
       gradientTransform="matrix(1.0605564,0,0,1.043155,161.48847,-3.884608)" />
    <linearGradient
       inkscape:collect="always"
       xlink:href="#fillGradient"
       id="hat-2-gradient"
       gradientUnits="userSpaceOnUse"
       x1="192.30013"
       y1="446.01318"
       x2="825.77911"
       y2="717.33643"
       gradientTransform="matrix(1.0605564,0,0,1.043155,13.756567,0.175931)" />
    <linearGradient
       inkscape:collect="always"
       xlink:href="#fillGradient"
       id="crown-base-gradient"
       gradientUnits="userSpaceOnUse"
       x1="192.30013"
       y1="446.01318"
       x2="825.77911"
       y2="717.33643"
       gradientTransform="matrix(1.0605564,0,0,1.043155,13.756567,0.175931)" />
    <linearGradient
       inkscape:collect="always"
       xlink:href="#fillGradient"
       id="hat-1-gradient"
       gradientUnits="userSpaceOnUse"
       x1="721.62231"
       y1="220.04175"
       x2="541.26611"
       y2="599.38"
       gradientTransform="matrix(1.0605564,0,0,1.043155,13.756567,0.175931)" />
  </defs>
  <sodipodi:namedview
     id="base"
     pagecolor="#ffffff"
     bordercolor="#666666"
     borderopacity="1.0"
     inkscape:pageopacity="0.0"
     inkscape:pageshadow="2"
     inkscape:zoom="1.6970563"
     inkscape:cx="438.99546"
     inkscape:cy="600.74614"
     inkscape:current-layer="svg36220"
     inkscape:document-units="px"
     inkscape:window-width="1307"
     inkscape:window-height="822"
     inkscape:window-x="30"
     inkscape:window-y="106"
     inkscape:showpageshadow="2"
     inkscape:pagecheckerboard="0"
     inkscape:deskcolor="#d1d1d1"
     showgrid="false"
     inkscape:window-maximized="0" />
  <metadata
     id="metadata36225">
    <rdf:RDF>
      <cc:Work
         rdf:about="">
        <dc:format>image/svg+xml</dc:format>
        <dc:type
           rdf:resource="http://purl.org/dc/dcmitype/StillImage" />
        <dc:rights>
          <cc:Agent>
            <dc:title>Maurizio Monge</dc:title>
          </cc:Agent>
        </dc:rights>
        <dc:creator>
          <cc:Agent>
            <dc:title>Maurizio Monge</dc:title>
          </cc:Agent>
        </dc:creator>
        <cc:license
           rdf:resource="http://creativecommons.org/licenses/GPL/2.0/" />
      </cc:Work>
      <cc:License
         rdf:about="http://creativecommons.org/licenses/GPL/2.0/">
        <cc:permits
           rdf:resource="http://web.resource.org/cc/Reproduction" />
        <cc:permits
           rdf:resource="http://web.resource.org/cc/Distribution" />
        <cc:requires
           rdf:resource="http://web.resource.org/cc/Notice" />
        <cc:permits
           rdf:resource="http://web.resource.org/cc/DerivativeWorks" />
        <cc:requires
           rdf:resource="http://web.resource.org/cc/ShareAlike" />
        <cc:requires
           rdf:resource="http://web.resource.org/cc/SourceCode" />
      </cc:License>
    </rdf:RDF>
  </metadata>
  <path
     id="boundary"
     class="base stroke-color stroke-boundary"
     style="fill:none"
     d="m 561.50586,140.60547 c -18.70597,-19.44625 19.31327,-33.51603 5.41602,-49.734376 -4.81935,-5.624257 -11.52053,-8.219041 -18.27149,-8.324219 -6.75096,-0.105178 -13.55099,2.27927 -18.56836,6.615234 -17.86911,15.442331 16.29209,29.547791 3.05664,51.658201 m -119.36523,3.84571 c -18.70597,-19.44626 19.31327,-33.51603 5.41601,-49.734379 -4.81934,-5.624256 -11.52052,-8.219041 -18.27148,-8.324219 -6.75096,-0.105178 -13.55099,2.279267 -18.56836,6.615234 -17.86911,15.442334 16.29209,29.547784 3.05664,51.658204 m 302.5332,-47.529298 c -21.83234,0.205835 -38.1206,17.830198 -47.17578,35.744138 -5.99058,11.37604 -16.55352,19.65933 -22.42383,31.01953 -1.23526,6.84263 8.6857,9.07052 13.91993,7.59375 12.7777,-2.65946 22.89986,-12.59551 27.21484,-24.5371 5.12046,-12.29626 16.6827,-21.97014 30.38672,-22.86133 13.45872,-2.32734 25.89068,8.08033 28.60156,20.73437 3.91745,13.26526 2.14472,28.90158 -8.7168,38.53125 -16.95302,17.49062 -42.66734,25.31773 -56.9375,45.60547 -7.43026,14.42229 -14.82648,28.86472 -22.2539,43.28906 -25.76901,-49.51363 -56.84353,-92.98546 -81.97657,-116.2207 -30.99017,17.48623 -61.04264,51.10949 -72.51757,70.1543 l 0.88281,2.44336 c -23.1288,-26.4303 -48.64598,-49.88504 -77.22852,-70.1875 -79.32904,68.67437 -156.79829,223.4932 -171.05273,303.61328 -14.25445,80.12009 0.0962,151.56895 24.43555,185.92578 15.24832,21.52421 32.84505,55.27139 57.01562,63.70508 1.90058,-0.71489 3.92924,-1.39458 6.0332,-2.05078 -1.83345,3.16886 -2.44985,6.55411 -1.59179,10.16601 10.51764,22.83177 2.2207,52.19531 2.2207,52.19531 0,0 25.20994,-3.4432 62.05469,-6.09375 -3.49281,7.05643 -6.85779,14.16856 -10.28516,21.25391 -0.83234,0.1229 -1.69784,0.20595 -2.52734,0.33203 -27.99368,4.25505 -39.38011,8.99183 -55.14649,19.42969 -26.52067,17.55758 -138.23651,-18.9481 -147.02929,6.69922 -8.56728,24.98953 108.49716,25.08771 181.07031,24.34375 -2.12742,4.84101 -4.26747,9.67618 -6.32617,14.54687 -1.86918,7.09224 -7.47982,14.95631 -4.47461,22.33008 4.74023,3.62287 10.71043,-1.97997 14.81445,-4.43359 10.80428,-9.70039 18.45297,-22.00676 25.54688,-34.63867 43.66902,-7.38275 67.86552,-31.63836 90.3125,-31.67188 26.20555,-0.0391 50.11347,33.0091 113.85156,33.11914 34.19845,0.059 214.23227,3.5941 204.22656,-23.24609 -10.00549,-26.84021 -123.70373,9.20277 -161.77344,-9.88672 -19.9273,-9.99224 -25.77487,-12.35978 -51.55273,-16.20117 -56.4153,-8.40697 -113.78197,-9.60966 -167.0293,-4.70313 3.30584,-6.41517 6.62905,-12.82145 9.91211,-19.24805 18.63332,-0.80662 38.83042,-1.23282 59.60352,-0.9082 81.77468,1.2779 137.11914,7.6543 137.11914,7.6543 0,0 -2.07821,-37.57113 4.32617,-54.00781 0.38946,-3.39185 -0.4438,-6.55883 -2.30859,-9.50977 4.48468,0.69869 8.52072,1.40749 12.02734,2.11914 4.62707,-16.26028 7.86782,-32.37276 9.93359,-48.32422 l 1.58008,4.375 c 21.72445,-24.12259 57.11817,-89.3303 56.06641,-155.52539 -1.05175,-66.19508 -5.24201,-94.03747 -25.44336,-156.00195 -5.5737,-17.09645 -12.42265,-34.321 -20.04297,-51.21485 9.6823,-18.89352 19.2506,-37.84784 29.00391,-56.70312 14.40577,-20.97186 41.74834,-27.99708 57.90039,-47.36914 10.28573,-11.10439 16.8666,-25.8069 15.21093,-41.03906 -1.06114,-25.34642 -15.98262,-52.77633 -42.65429,-58.806644 -5.47353,-1.364404 -11.13548,-1.782037 -16.80274,-1.533204 z"
     sodipodi:nodetypes="csssccssscccccccccccccccssccccccssscccccsssssccsccccccsscccccc" />
  <path
     class="base stroke-color stroke-medium"
     style="fill:url(#crown-base-gradient)"
     d="m 613.4688,716.88415 c 6.40438,-55.77654 -311.93231,-51.65959 -298.9149,3.13582 10.51765,22.83179 2.22232,52.19433 2.22232,52.19433 0,0 73.47277,-10.2546 155.24752,-8.97671 81.77476,1.2779 137.11926,7.65529 137.11926,7.65529 0,0 -2.07859,-37.57203 4.3258,-54.00873 z"
     id="crown-base"
     sodipodi:nodetypes="cccscc" />
  <path
     class="base stroke-color stroke-medium"
     style="fill:url(#hat-1-gradient)"
     d="m 476.05994,226.4042 c 11.47494,-19.04483 41.52829,-52.66827 72.5185,-70.15452 38.42725,35.5256 90.82616,118.26336 116.74584,197.76796 20.20137,61.96454 24.39078,89.80711 25.44253,156.00226 1.05176,66.19515 -34.34178,131.40198 -56.06625,155.5246"
     id="hat-1"
     sodipodi:nodetypes="ccsss" />
  <path
     class="base stroke-color stroke-medium"
     style="fill:url(#hat-2-gradient)"
     d="m 310.11233,711.90405 c -24.1706,-8.4337 -41.76712,-42.18092 -57.01546,-63.70515 -24.33934,-34.35686 -38.68923,-105.80616 -24.43477,-185.92633 14.25445,-80.12016 91.72429,-234.93881 171.05341,-303.61325 96.68236,68.67444 159.0326,172.49863 208.23892,310.84214 26.33266,74.03417 39.40275,155.05353 15.23214,239.99296 -56.39806,-11.44574 -247.37475,-22.30275 -313.07424,2.40963 z"
     id="hat-2"
     sodipodi:nodetypes="csscscc" />
  <path
     class="base stroke-color stroke-medium"
     style="fill:none"
     d="m 470.56202,743.26601 c -10.11003,-2.68476 -13.1985,2.04118 -16.90546,-0.98011 -4.54879,-3.70739 -4.28247,-19.13202 -1.27088,-23.04754 2.57496,-3.34786 35.66805,-3.76573 38.91533,-0.68155 3.02721,2.87029 -0.0877,21.55666 -2.89236,26.28488"
     id="jewel"
     sodipodi:nodetypes="cssss" />
  <path
     class="base stroke-color stroke-medium fill-color"
     d="m 418.15998,363.78065 c -12.11986,1.89056 -18.15195,14.96126 -16.63469,26.04568 -0.20876,9.47599 4.0113,21.68504 -3.91359,29.11114 -10.7207,3.50829 -22.32256,-0.8852 -33.24644,-1.80366 -8.99363,-0.80825 -19.83926,-4.15229 -27.83498,1.54287 -6.11995,7.13073 1.02881,17.9059 8.9153,20.30892 15.85842,6.78537 34.68618,3.24609 49.94558,11.27911 5.26754,4.77975 4.19037,13.10461 5.79992,19.46137 4.96074,37.86875 4.69868,76.79531 16.3392,113.4757 3.04697,8.05336 7.80624,19.22711 17.99631,19.29837 7.86637,-2.64762 6.87324,-12.92464 7.29133,-19.55916 -0.95276,-41.59255 -12.68825,-82.13388 -14.54951,-123.64646 -0.20919,-4.08678 0.16229,-9.21561 5.53478,-9.64919 19.04976,-5.39284 41.30772,0.60586 58.62888,-10.79013 7.11339,-3.79142 13.05078,-17.93748 1.52455,-19.78735 -20.31693,-2.94109 -40.85335,5.67173 -61.04827,1.92332 -6.25183,-2.1771 -5.70435,-10.68933 -6.42963,-16.03851 -1.18363,-12.60166 2.70977,-26.01501 -2.15425,-38.04256 -1.21971,-2.09779 -3.67074,-3.43267 -6.16449,-3.12946 z"
     id="cross" />
  <path
     class="base stroke-color stroke-medium"
     style="fill:url(#shoulders-gradient)"
     d="m 350.87291,838.13068 c 59.20364,-0.65225 87.7059,-33.77876 113.91149,-33.81789 26.20558,-0.0391 50.1145,33.00907 113.85265,33.11911 34.19849,0.059 214.23123,3.59322 204.22551,-23.247 -10.0055,-26.84023 -123.7034,9.20421 -161.77314,-9.8853 -19.92732,-9.99225 -25.77353,-12.36034 -51.55142,-16.20174 -69.53957,-10.36274 -140.63944,-9.94962 -203.51988,-0.39178 -27.99371,4.25505 -39.38027,8.99317 -55.14666,19.43104 -26.5207,17.5576 -138.23662,-18.94894 -147.02941,6.6984 -8.7928,25.64734 115.09026,25.08774 187.03086,24.29516 z"
     id="shoulders"
     sodipodi:nodetypes="csssssssss" />
  <path
     class="base stroke-color stroke-medium"
     style="fill:url(#top-deco-1-gradient)"
     d="m 385.40646,144.88104 c 13.23546,-22.11044 -20.92578,-36.21653 -3.05665,-51.658875 10.03475,-8.671943 27.2019,-9.539522 36.84059,1.709001 13.89727,16.218364 -24.12222,30.288224 -5.41623,49.734504"
     id="top-deco-1"
     sodipodi:nodetypes="csss" />
  <path
     sodipodi:nodetypes="csss"
     id="top-deco-2"
     d="m 533.13833,140.82049 c 13.23546,-22.11043 -20.92578,-36.21652 -3.05665,-51.658869 10.03475,-8.671938 27.2019,-9.539518 36.84059,1.709006 13.89727,16.218363 -24.12222,30.288223 -5.41623,49.734493"
     class="base stroke-color stroke-medium"
     style="fill:url(#top-deco-2-gradient)" />
  <path
     class="base stroke-color stroke-medium fill-color"
     d="m 687.93902,97.352339 c -21.83236,0.205835 -38.11922,17.829951 -47.17441,35.743911 -5.99059,11.37605 -16.55429,19.65779 -22.4246,31.01801 -1.23526,6.84263 8.68557,9.07224 13.9198,7.59547 12.77772,-2.65947 22.89953,-12.59557 27.21451,-24.53718 5.12047,-12.29627 16.68293,-21.96998 30.38696,-22.86117 13.45874,-2.32734 25.891,8.07865 28.60188,20.7327 3.91745,13.26527 2.14508,28.90186 -8.71645,38.53154 -16.95304,17.49064 -42.66845,25.31767 -56.93862,45.60543 -78.3183,152.01733 -156.51757,304.13326 -233.78423,456.67452 -27.42965,55.32663 -56.4131,110.02909 -80.43875,166.87138 -1.86918,7.09224 -7.47943,14.95626 -4.47422,22.33004 4.74024,3.62287 10.71061,-1.97978 14.81464,-4.43341 16.89174,-15.16587 26.25619,-36.58993 37.4509,-55.90659 47.16856,-90.01329 91.37467,-181.51216 137.28497,-272.15908 49.84875,-98.99142 99.70088,-198.01465 150.62296,-296.45819 14.40579,-20.97188 41.74863,-27.99761 57.90069,-47.36969 10.28574,-11.1044 16.86708,-25.80551 15.21141,-41.03769 -1.06115,-25.34644 -15.98255,-52.77755 -42.65425,-58.807867 -5.47353,-1.364405 -11.13593,-1.780968 -16.80319,-1.532134 z"
     id="stick" />
</svg>
