<?xml version="1.0" encoding="UTF-8" standalone="no"?>
<!-- Created with Inkscape (http://www.inkscape.org/) -->

<svg
   width="700pt"
   height="700pt"
   id="bishop"
   viewBox="0 0 933.333 933.333"
   sodipodi:version="0.32"
   inkscape:version="1.1.2 (0a00cf5339, 2022-02-04)"
   version="1.0"
   inkscape:export-filename="/home/maurizio/out/wb.png"
   inkscape:export-xdpi="90"
   inkscape:export-ydpi="90"
   sodipodi:docname="b.svg"
   xmlns:inkscape="http://www.inkscape.org/namespaces/inkscape"
   xmlns:sodipodi="http://sodipodi.sourceforge.net/DTD/sodipodi-0.dtd"
   xmlns:xlink="http://www.w3.org/1999/xlink"
   xmlns="http://www.w3.org/2000/svg"
   xmlns:svg="http://www.w3.org/2000/svg"
   xmlns:rdf="http://www.w3.org/1999/02/22-rdf-syntax-ns#"
   xmlns:cc="http://creativecommons.org/ns#"
   xmlns:dc="http://purl.org/dc/elements/1.1/">
  <style
     id="style-base">
    .base { 
      fill-opacity:1;
      fill-rule:evenodd;
      stroke-miterlimit:4;
      stroke-dasharray:none;
      stroke-linecap:round;
      stroke-linejoin:round;
      stroke-opacity:1
    }
    .shadow {
      stroke:none;
      filter:url(#filterBlur);
    }
  </style>
  <style
     id="stroke-medium">
    .stroke-medium {
      stroke-width: 18;
    }
  </style>
  <style
     id="stroke-boundary">
    .stroke-boundary {
      stroke-width: 30;
    }
  </style>
  <style
     id="stroke-color">
    .stroke-color {
      stroke:#ff0000;
    }
  </style>
  <style
     id="fill-color">
    .fill-color {
      fill:#00ff00;
    }
  </style>
  <defs
     id="defs36222">
    <linearGradient
       id="fillGradient">
      <stop
         style="stop-color:#ffffff;stop-opacity:1"
         offset="0"
         id="stop0" />
      <stop
         style="stop-color:#00ffff;stop-opacity:1"
         offset="1"
         id="stop1" />
    </linearGradient>
    <linearGradient
       inkscape:collect="always"
       xlink:href="#fillGradient"
       id="shoulders-gradient"
       x1="136.09714"
       y1="629.62048"
       x2="784.78107"
       y2="865.10339"
       gradientUnits="userSpaceOnUse"
       gradientTransform="matrix(1.2050933,0,0,1.1853203,-52.883244,-98.26578)" />
    <linearGradient
       inkscape:collect="always"
       xlink:href="#fillGradient"
       id="top-deco-1-gradient"
       x1="321.15759"
       y1="90.161285"
       x2="395.43152"
       y2="128.46291"
       gradientUnits="userSpaceOnUse"
       gradientTransform="matrix(1.0733777,0,0,1.0557659,6.2000465,-0.71004143)" />
    <linearGradient
       inkscape:collect="always"
       xlink:href="#fillGradient"
       id="top-deco-2-gradient"
       gradientUnits="userSpaceOnUse"
       x1="321.15759"
       y1="90.161285"
       x2="395.43152"
       y2="128.46291"
       gradientTransform="matrix(1.0733777,0,0,1.0557659,155.71791,-4.8196691)" />
    <linearGradient
       inkscape:collect="always"
       xlink:href="#fillGradient"
       id="hat-2-gradient"
       gradientUnits="userSpaceOnUse"
       x1="192.30013"
       y1="446.01318"
       x2="825.77911"
       y2="717.33643"
       gradientTransform="matrix(1.0733777,0,0,1.0557659,6.2000465,-0.71004143)" />
    <linearGradient
       inkscape:collect="always"
       xlink:href="#fillGradient"
       id="crown-base-gradient"
       gradientUnits="userSpaceOnUse"
       x1="192.30013"
       y1="446.01318"
       x2="825.77911"
       y2="717.33643"
       gradientTransform="matrix(1.0733777,0,0,1.0557659,6.2000465,-0.71004143)" />
    <linearGradient
       inkscape:collect="always"
       xlink:href="#fillGradient"
       id="hat-1-gradient"
       gradientUnits="userSpaceOnUse"
       x1="721.62231"
       y1="220.04175"
       x2="541.26611"
       y2="599.38"
       gradientTransform="matrix(1.0733777,0,0,1.0557659,6.2000465,-0.71004143)" />
    <filter
       style="color-interpolation-filters:sRGB;"
       id="filterBlur"
       x="-0.19086554"
       y="-0.16337513"
       width="1.3817311"
       height="1.3267503">
      <feGaussianBlur
         stdDeviation="50 50"
         result="blur"
         id="feGaussianBlur13" />
    </filter>
  </defs>
  <sodipodi:namedview
     id="base"
     pagecolor="#ffffff"
     bordercolor="#666666"
     borderopacity="1.0"
     inkscape:pageopacity="0.0"
     inkscape:pageshadow="2"
     inkscape:zoom="0.60000001"
     inkscape:cx="253.33333"
     inkscape:cy="604.16666"
     inkscape:current-layer="bishop"
     inkscape:document-units="px"
     inkscape:window-width="1535"
     inkscape:window-height="969"
     inkscape:window-x="26"
     inkscape:window-y="23"
     inkscape:showpageshadow="2"
     inkscape:pagecheckerboard="0"
     inkscape:deskcolor="#d1d1d1"
     showgrid="false"
     inkscape:window-maximized="0" />
  <metadata
     id="metadata36225">
    <rdf:RDF>
      <cc:Work
         rdf:about="">
        <dc:format>image/svg+xml</dc:format>
        <dc:type
           rdf:resource="http://purl.org/dc/dcmitype/StillImage" />
        <dc:rights>
          <cc:Agent>
            <dc:title>Maurizio Monge</dc:title>
          </cc:Agent>
        </dc:rights>
        <dc:creator>
          <cc:Agent>
            <dc:title>Maurizio Monge</dc:title>
          </cc:Agent>
        </dc:creator>
        <cc:license
           rdf:resource="http://creativecommons.org/licenses/GPL/2.0/" />
      </cc:Work>
      <cc:License
         rdf:about="http://creativecommons.org/licenses/GPL/2.0/">
        <cc:permits
           rdf:resource="http://web.resource.org/cc/Reproduction" />
        <cc:permits
           rdf:resource="http://web.resource.org/cc/Distribution" />
        <cc:requires
           rdf:resource="http://web.resource.org/cc/Notice" />
        <cc:permits
           rdf:resource="http://web.resource.org/cc/DerivativeWorks" />
        <cc:requires
           rdf:resource="http://web.resource.org/cc/ShareAlike" />
        <cc:requires
           rdf:resource="http://web.resource.org/cc/SourceCode" />
      </cc:License>
    </rdf:RDF>
  </metadata>
  <path
     id="shadow"
     style="fill:#000"
     class="base shadow"
     d="M 547.56055 82.65625 C 540.72797 82.5498 533.84559 84.963185 528.76758 89.351562 C 510.68247 104.98056 545.25676 119.25708 531.86133 141.63477 L 560.57227 141.41602 C 541.64016 121.7347 580.11799 107.49642 566.05273 91.082031 C 561.17514 85.389788 554.39311 82.7627 547.56055 82.65625 z M 398.04297 86.765625 C 391.21039 86.659176 384.32802 89.072551 379.25 93.460938 C 361.16487 109.08996 395.73921 123.36643 382.34375 145.74414 L 411.05273 145.52734 C 392.12062 125.84599 430.60042 111.60582 416.53516 95.191406 C 411.65756 89.499158 404.87554 86.872074 398.04297 86.765625 z M 688.5332 97.640625 C 685.77118 97.666665 683.09696 97.968641 680.51367 98.511719 C 677.93036 99.054802 675.43698 99.839621 673.03906 100.83203 C 670.64175 101.8243 668.33815 103.02474 666.13281 104.39844 C 661.82372 107.08255 657.89995 110.44633 654.36133 114.20508 C 654.27767 114.29395 654.18087 114.36771 654.09766 114.45703 C 654.09703 114.45771 654.09633 114.45831 654.0957 114.45898 C 650.49303 118.32661 647.30784 122.61866 644.56641 127.06445 C 644.56593 127.06522 644.56492 127.06564 644.56445 127.06641 C 643.19404 129.28895 641.93425 131.55087 640.78906 133.81641 C 634.72609 145.3299 624.03304 153.71342 618.0918 165.21094 C 617.4667 168.67359 619.66363 170.96839 622.67969 172.21094 C 624.18814 172.83284 625.90101 173.19116 627.56836 173.30078 C 629.23509 173.4102 630.85531 173.27014 632.17969 172.89648 C 633.7968 172.55991 635.37158 172.10914 636.89844 171.55273 C 639.9505 170.44057 642.80922 168.90875 645.42578 167.04297 C 649.35143 164.24395 652.7314 160.69044 655.39648 156.66406 C 657.17321 153.97981 658.63282 151.08594 659.72461 148.06445 C 661.02038 144.95279 662.72269 142.00667 664.76562 139.32422 C 665.78691 137.9832 666.89364 136.70891 668.07617 135.51172 C 673.9887 129.52544 681.80998 125.48951 690.47852 124.92578 C 693.88388 124.33691 697.22333 124.55393 700.36133 125.41016 C 709.77521 127.97914 717.36804 136.30491 719.42578 145.91016 C 719.92138 147.58836 720.32779 149.30242 720.63672 151.03906 C 721.25479 154.51286 721.48497 158.06934 721.27539 161.57812 C 721.06584 165.08628 720.41588 168.54603 719.27148 171.82422 C 718.69929 173.46331 718.0038 175.05791 717.17773 176.58984 C 715.52561 179.6537 713.35171 182.46974 710.60352 184.90625 C 706.31403 189.33175 701.47105 193.14624 696.39258 196.69922 C 688.77487 202.02868 680.62859 206.7695 673.0332 212.10352 C 670.50141 213.88143 668.03164 215.72438 665.66211 217.67773 C 665.66141 217.67831 665.66086 217.67911 665.66016 217.67969 C 663.29101 219.63284 661.02352 221.69611 658.89648 223.91211 C 656.76911 226.1284 654.78189 228.49784 652.97656 231.06445 C 645.45669 245.66071 637.97017 260.27667 630.45312 274.875 C 604.37316 224.7634 572.92472 180.76572 547.48828 157.25 C 516.12357 174.94755 485.70541 208.97895 474.0918 228.25391 L 474.98242 230.7207 C 451.57506 203.97303 425.7504 180.23601 396.82422 159.68945 C 316.53655 229.19369 238.12985 385.88439 223.70312 466.97266 C 209.27647 548.06094 223.80012 620.37451 248.43359 655.14648 C 263.86621 676.9308 281.67605 711.08746 306.13867 719.62305 C 308.0615 718.89979 310.11562 718.21469 312.24414 717.55078 C 310.39014 720.75694 309.7647 724.18173 310.63281 727.83594 C 321.27755 750.94356 312.88281 780.66211 312.88281 780.66211 C 312.88281 780.66211 338.39678 777.17889 375.6875 774.49609 C 372.46279 781.01089 369.36005 787.57845 366.18945 794.11719 C 359.88515 794.89879 353.55859 795.65366 347.38672 796.5918 C 315.57801 801.42672 305.12856 809.94759 284.72266 816.67188 C 248.70982 828.53899 121.64733 799.14062 111.65625 828.2832 C 101.66517 857.42577 248.43106 854.78926 330.17578 853.88867 C 333.11551 853.85629 335.90573 853.66913 338.71484 853.50195 C 337.46672 856.38615 336.17863 859.25363 334.95508 862.14844 C 334.01316 865.72234 332.1347 869.49146 330.85938 873.29492 C 330.8543 873.31006 330.84685 873.3247 330.8418 873.33984 C 329.56586 877.16022 328.90675 881.01601 330.42773 884.74805 C 331.62652 885.66425 332.90358 885.99784 334.20898 885.94336 C 334.20961 885.94333 334.21031 885.94339 334.21094 885.94336 C 334.21213 885.94331 334.21365 885.94341 334.21484 885.94336 C 335.51909 885.88755 336.85314 885.44447 338.16602 884.81055 C 340.79555 883.54087 343.34505 881.50141 345.42188 880.25977 C 347.78773 878.13564 349.98092 875.86967 352.08008 873.52539 C 352.51279 873.03978 352.9096 872.52522 353.33203 872.03125 C 355.0694 870.01094 356.73955 867.93689 358.32617 865.79492 C 358.49913 865.55975 358.66653 865.32043 358.83789 865.08398 C 362.59418 859.93777 365.94999 854.48535 369.16016 848.92578 C 369.16032 848.9255 369.16195 848.92606 369.16211 848.92578 C 411.24932 838.5683 436.27408 815.49775 459.61328 815.46289 C 489.39017 815.41849 516.55604 852.96872 588.98047 853.09375 C 627.83954 853.16075 832.40837 857.17771 821.03906 826.67969 C 809.67 796.18165 680.47667 837.13828 637.21875 815.44727 C 614.57572 804.09327 607.93349 801.40203 578.64258 797.03711 L 398.32422 794.55469 C 401.65654 788.09615 404.99759 781.64209 408.30664 775.17188 L 608.78516 779.32422 C 608.78516 779.32422 606.68036 741.29739 613.16211 724.66211 C 613.5563 721.22901 612.7138 718.02586 610.82617 715.03906 C 615.36541 715.74624 619.44882 716.46329 622.99805 717.18359 C 627.68082 700.72753 630.96001 684.41896 633.05078 668.27539 L 634.65039 672.70312 C 656.63739 648.28904 692.45901 582.29191 691.39453 515.29688 C 690.33007 448.30178 686.09002 420.12345 665.64453 357.41016 C 660.00352 340.10714 653.07169 322.67422 645.35938 305.57617 C 655.15868 286.45432 664.84171 267.27065 674.71289 248.1875 C 676.53538 245.53433 678.5621 243.10198 680.74609 240.83789 C 685.11408 236.30971 690.10994 232.45486 695.35156 228.85938 C 703.21355 223.46645 711.62922 218.65432 719.31055 213.02148 C 721.87106 211.14378 724.35151 209.17477 726.70117 207.0625 C 729.05085 204.95021 731.27105 202.69491 733.31445 200.24414 C 735.90899 197.4431 738.26843 194.41618 740.32617 191.21094 C 741.36474 189.59325 742.32658 187.93075 743.20117 186.22852 C 747.54663 177.77088 749.75629 168.34609 748.70898 158.71094 C 748.03777 142.67796 741.88647 125.81994 730.77734 113.94141 C 728.55552 111.56575 726.1358 109.38991 723.52148 107.45898 C 720.90717 105.52806 718.09807 103.84256 715.09961 102.44922 C 712.10115 101.05586 708.91332 99.954304 705.53906 99.191406 C 699.9994 97.810514 694.26897 97.388783 688.5332 97.640625 z " />
  <path
     id="boundary"
     style="fill:none"
     class="base stroke-color stroke-boundary"
     d="m 560.57227,141.41602 c -18.93211,-19.68132 19.54572,-33.9196 5.48046,-50.333989 -4.87759,-5.692243 -11.65962,-8.319331 -18.49218,-8.425781 -6.83258,-0.10645 -13.71496,2.306935 -18.79297,6.695312 -18.08511,15.628998 16.48918,29.905518 3.09375,52.283208 m -120.8086,3.89257 c -18.93211,-19.68135 19.54769,-33.92152 5.48243,-50.335934 -4.8776,-5.692248 -11.65962,-8.319332 -18.49219,-8.425781 -6.83258,-0.106449 -13.71495,2.306927 -18.79297,6.695313 -18.08513,15.629022 16.48921,29.905492 3.09375,52.283202 m 226.44141,633.58008 c 0,0 -2.1048,-38.02683 4.37695,-54.66211 0.39419,-3.4331 -0.44831,-6.63625 -2.33594,-9.62305 4.53924,0.70718 8.62265,1.42423 12.17188,2.14453 4.68277,-16.45606 7.96196,-32.76463 10.05273,-48.9082 l 1.59961,4.42773 c 21.987,-24.41409 57.80862,-90.4112 56.74414,-157.40624 -1.06446,-66.9951 -5.30451,-95.17343 -25.75,-157.88672 -5.64101,-17.30302 -12.57284,-34.73594 -20.28515,-51.83399 9.79931,-19.12185 19.48233,-38.30552 29.35351,-57.38867 14.57991,-21.22534 42.25431,-28.33717 58.60156,-47.94336 10.41004,-11.23861 17.07022,-26.11695 15.39453,-41.5332 -1.07394,-25.65277 -16.17586,-53.41635 -43.16992,-59.519534 -5.53966,-1.380892 -11.27009,-1.802623 -17.00586,-1.550781 -22.09618,0.208324 -38.57952,18.045295 -47.74414,36.175785 -6.06297,11.51349 -16.75602,19.89701 -22.69726,31.39453 -1.25019,6.92531 8.79038,9.18016 14.08789,7.68554 12.93211,-2.69158 23.17778,-12.7461 27.54492,-24.83203 5.18233,-12.44484 16.88425,-22.2367 30.75391,-23.13867 13.62136,-2.35547 26.20361,8.17739 28.94726,20.98438 3.96481,13.42555 2.1705,29.25004 -8.82226,38.99609 -17.15794,17.70201 -43.18431,25.62526 -57.62696,46.1582 -7.51987,14.59626 -15.0064,29.21222 -22.52344,43.81055 -26.07996,-50.1116 -57.5284,-94.10928 -82.96484,-117.625 -31.36471,17.69755 -61.78287,51.72895 -73.39648,71.00391 l 0.89062,2.46679 c -23.40736,-26.74767 -49.23202,-50.48469 -78.1582,-71.03125 -80.28767,69.50424 -158.69438,226.19494 -173.1211,307.28321 -14.42666,81.08828 0.097,153.40185 24.73047,188.17382 15.43262,21.78432 33.24246,55.94098 57.70508,64.47657 1.92283,-0.72326 3.97695,-1.40836 6.10547,-2.07227 -1.854,3.20616 -2.47944,6.63095 -1.61133,10.28516 10.64474,23.10762 2.25,52.82617 2.25,52.82617 0,0 25.51397,-3.48322 62.80469,-6.16602 m -9.47461,19.61719 c -6.31214,0.78265 -12.64657,1.53921 -18.82617,2.47852 -31.80871,4.83492 -42.25816,13.35579 -62.66406,20.08008 -36.01284,11.86712 -163.07533,-17.53126 -173.06641,11.61132 -9.99108,29.14257 136.77481,26.50606 218.51953,25.60547 2.94107,-0.0324 5.73256,-0.21948 8.54297,-0.38672 -1.24862,2.88467 -2.53987,5.7511 -3.76367,8.64649 -1.89177,7.17794 -7.56885,15.13669 -4.52735,22.59961 4.79755,3.66663 10.84051,-2.00503 14.99415,-4.48828 9.86952,-8.86116 17.12493,-19.8801 23.73828,-31.33399 42.08835,-10.35726 67.11357,-33.42803 90.45312,-33.46289 29.77689,-0.0444 56.94276,37.50583 129.36719,37.63086 38.85907,0.067 243.4279,4.08396 232.05859,-26.41406 -11.36906,-30.49804 -140.56239,10.45859 -183.82031,-11.23242 -22.64303,-11.354 -29.28526,-14.04524 -58.57617,-18.41016"
     sodipodi:nodetypes="csssccssscccccccsscccccccccccccccccccssccccccsssscccccsscsc" />
  <path
     class="base stroke-color stroke-medium"
     style="fill:url(#shoulders-gradient)"
     d="m 330.17664,853.88873 c 67.27214,-0.74115 99.6588,-38.38226 129.43579,-38.42673 29.77698,-0.0444 56.9443,37.50768 129.36894,37.63271 38.85919,0.067 243.4275,4.08292 232.05816,-26.41519 -11.36909,-30.49813 -140.56218,10.45859 -183.82022,-11.23251 -22.64309,-11.35403 -29.28605,-14.04485 -58.57705,-18.40977 -79.0167,-11.77502 -159.80633,-11.3056 -231.25637,-0.44518 -31.8088,4.83495 -42.2563,13.35489 -62.66226,20.07918 -36.01293,11.86718 -163.07605,-17.53138 -173.06716,11.61129 -9.99111,29.14266 136.77521,26.50679 218.52017,25.6062 z"
     id="shoulders"
     sodipodi:nodetypes="ssssssssss" />
  <path
     class="base stroke-color stroke-medium"
     style="fill:url(#crown-base-gradient)"
     d="m 613.16231,724.6626 c 6.48181,-56.45084 -315.70332,-52.28411 -302.52854,3.17373 10.6448,23.1078 2.24919,52.82531 2.24919,52.82531 0,0 74.361,-10.37857 157.12434,-9.08523 82.76335,1.29335 138.77692,7.74784 138.77692,7.74784 0,0 -2.10372,-38.02625 4.37809,-54.66165 z"
     id="crown-base"
     sodipodi:nodetypes="cccscc" />
  <path
     class="base stroke-color stroke-medium"
     style="fill:url(#hat-1-gradient)"
     d="m 474.09229,228.25314 c 11.61366,-19.27506 42.03033,-53.30498 73.39519,-71.00263 38.89181,35.95508 91.92418,119.69307 118.1572,200.15882 20.44559,62.71364 24.68565,90.8928 25.75011,157.8882 1.06448,66.99539 -34.75694,132.99052 -56.74404,157.40476"
     id="hat-1"
     sodipodi:nodetypes="ccsss" />
  <path
     class="base stroke-color stroke-medium"
     style="fill:url(#hat-2-gradient)"
     d="M 306.13851,719.62229 C 281.67571,711.08664 263.86646,676.93144 248.43378,655.147 223.8002,620.37479 209.27683,548.06173 223.70361,466.97297 c 14.42678,-81.08875 92.83316,-237.77903 173.12131,-307.28369 97.85117,69.50466 160.95517,174.584 210.75636,314.59997 26.651,74.92918 39.8791,156.928 15.41628,242.89428 -57.07986,-11.58411 -250.36531,-22.57237 -316.85905,2.43876 z"
     id="hat-2"
     sodipodi:nodetypes="csscscc" />
  <path
     class="base stroke-color stroke-medium"
     style="fill:none"
     d="m 468.52791,751.36339 c -10.23226,-2.71721 -13.35806,2.06586 -17.10984,-0.99196 -4.60378,-3.75221 -4.33424,-19.36331 -1.28624,-23.32616 2.60609,-3.38833 36.09925,-3.81126 39.38578,-0.68979 3.06381,2.90499 -0.0888,21.81726 -2.92732,26.60264"
     id="jewel"
     sodipodi:nodetypes="cssss" />
  <path
     class="base stroke-color stroke-medium fill-color"
     d="m 415.49237,367.29036 c -12.26638,1.91342 -18.37139,15.14213 -16.83579,26.36055 -0.21129,9.59055 4.05979,21.9472 -3.9609,29.46307 -10.85031,3.55071 -22.59243,-0.8959 -33.64837,-1.82546 -9.10235,-0.81802 -20.0791,-4.20249 -28.17148,1.56152 -6.19393,7.21694 1.04125,18.12237 9.02308,20.55444 16.05014,6.8674 35.10551,3.28533 50.54938,11.41547 5.33122,4.83753 4.24103,13.26303 5.87004,19.69664 5.02071,38.32655 4.75548,77.7237 16.53673,114.84753 3.0838,8.15071 7.90061,19.45955 18.21387,19.53167 7.96146,-2.67963 6.95633,-13.08089 7.37947,-19.79562 -0.96428,-42.09537 -12.84164,-83.12681 -14.7254,-125.14124 -0.21172,-4.13619 0.16425,-9.32702 5.60169,-9.76584 19.28006,-5.45804 41.8071,0.61318 59.33766,-10.92058 7.19938,-3.83725 13.20855,-18.15433 1.54298,-20.02656 -20.56255,-2.97664 -41.34724,5.7403 -61.7863,1.94657 -6.32741,-2.20342 -5.77331,-10.81855 -6.50736,-16.2324 -1.19793,-12.754 2.74253,-26.32951 -2.18029,-38.50246 -1.23445,-2.12315 -3.71511,-3.47417 -6.23901,-3.1673 z"
     id="cross" />
  <path
     class="base stroke-color stroke-medium"
     style="fill:url(#top-deco-1-gradient)"
     d="m 382.34288,145.74443 c 13.39547,-22.37773 -21.17875,-36.65435 -3.0936,-52.283384 10.15606,-8.77678 27.53075,-9.654847 37.28596,1.729661 14.06528,16.414433 -24.41383,30.654383 -5.4817,50.335753"
     id="top-deco-1"
     sodipodi:nodetypes="csss" />
  <path
     sodipodi:nodetypes="csss"
     id="top-deco-2"
     d="m 531.86071,141.6348 c 13.39547,-22.37773 -21.17875,-36.65435 -3.0936,-52.283387 10.15606,-8.776774 27.53075,-9.654843 37.28596,1.729667 14.06528,16.41443 -24.41383,30.65438 -5.4817,50.33574"
     class="base stroke-color stroke-medium"
     style="fill:url(#top-deco-2-gradient)" />
  <path
     class="base stroke-color stroke-medium fill-color"
     d="m 688.53282,97.64115 c -22.0963,0.208324 -38.58005,18.0455 -47.74471,36.17603 -6.06301,11.51357 -16.75442,19.89543 -22.6957,31.39299 -1.25019,6.92535 8.79057,9.18191 14.08808,7.68729 12.93219,-2.69162 23.17637,-12.74784 27.54351,-24.83381 5.18237,-12.44492 16.88462,-22.23558 30.75432,-23.13755 13.62144,-2.35547 26.204,8.17632 28.94765,20.98335 3.96481,13.42563 2.17101,29.25126 -8.82183,38.99735 -17.15798,17.70209 -43.18427,25.62374 -57.62696,46.15676 -79.2651,153.8551 -158.40974,307.80999 -236.61049,462.19535 -27.76125,55.99548 -57.09509,111.35925 -81.41119,168.88872 -1.89177,7.17798 -7.56985,15.13707 -4.52831,22.59999 4.79755,3.66667 10.8401,-2.00372 14.99374,-4.48701 17.09595,-15.34921 26.57361,-37.03227 37.90365,-56.58245 47.73879,-91.10148 92.47932,-183.7065 138.94463,-275.44927 50.45139,-100.18814 100.90619,-200.40848 152.44387,-300.04212 14.57995,-21.22542 42.25334,-28.33608 58.60067,-47.94235 10.41008,-11.23865 17.07099,-26.11748 15.3953,-41.53381 -1.07398,-25.65285 -16.17577,-53.41558 -43.16991,-59.518803 -5.5397,-1.3809 -11.27055,-1.802499 -17.00632,-1.550657 z"
     id="stick" />
</svg>
