<?xml version="1.0" encoding="UTF-8" standalone="no"?>
<!-- Created with Inkscape (http://www.inkscape.org/) -->

<svg
   width="700pt"
   height="700pt"
   id="king"
   viewBox="0 0 933.333 933.333"
   sodipodi:version="0.32"
   inkscape:version="1.1.2 (0a00cf5339, 2022-02-04)"
   version="1.0"
   inkscape:export-filename="/home/maurizio/out/wk.png"
   inkscape:export-xdpi="90"
   inkscape:export-ydpi="90"
   sodipodi:docname="k.svg"
   xmlns:inkscape="http://www.inkscape.org/namespaces/inkscape"
   xmlns:sodipodi="http://sodipodi.sourceforge.net/DTD/sodipodi-0.dtd"
   xmlns:xlink="http://www.w3.org/1999/xlink"
   xmlns="http://www.w3.org/2000/svg"
   xmlns:svg="http://www.w3.org/2000/svg"
   xmlns:rdf="http://www.w3.org/1999/02/22-rdf-syntax-ns#"
   xmlns:cc="http://creativecommons.org/ns#"
   xmlns:dc="http://purl.org/dc/elements/1.1/">
  <style
     id="style-base">
    .base { 
      fill-opacity:1;
      fill-rule:evenodd;
      stroke-miterlimit:4;
      stroke-dasharray:none;
      stroke-linecap:round;
      stroke-linejoin:round;
      stroke-opacity:1
    }
    .shadow {
      stroke:none;
      filter:url(#filterBlur);
    }
  </style>
  <style
     id="stroke-medium">
    .stroke-medium {
      stroke-width: 18;
    }
  </style>
  <style
     id="stroke-boundary">
    .stroke-boundary {
      stroke-width: 30;
    }
  </style>
  <style
     id="stroke-color">
    .stroke-color {
      stroke:#ff0000;
    }
  </style>
  <style
     id="fill-color">
    .fill-color {
      fill:#00ff00;
    }
  </style>
  <defs
     id="defs36222">
    <linearGradient
       id="fillGradient">
      <stop
         style="stop-color:#ffffff;stop-opacity:1;"
         offset="0"
         id="stop0" />
      <stop
         style="stop-color:#00ffff;stop-opacity:1"
         offset="1"
         id="stop1" />
    </linearGradient>
    <linearGradient
       inkscape:collect="always"
       xlink:href="#fillGradient"
       id="linearGradient2272"
       x1="297.55386"
       y1="427.04959"
       x2="368.56238"
       y2="521.21625"
       gradientUnits="userSpaceOnUse"
       gradientTransform="matrix(1.0232871,0,0,1.0232871,19.705736,0.052273)" />
    <linearGradient
       inkscape:collect="always"
       xlink:href="#fillGradient"
       id="linearGradient2274"
       x1="495.29623"
       y1="448.54721"
       x2="595.97144"
       y2="528.54724"
       gradientUnits="userSpaceOnUse"
       gradientTransform="matrix(1.0232871,0,0,1.0232871,19.705736,0.052273)" />
    <linearGradient
       inkscape:collect="always"
       xlink:href="#fillGradient"
       id="base-gradient"
       x1="221.55104"
       y1="774.93707"
       x2="633.49097"
       y2="859.35083"
       gradientUnits="userSpaceOnUse"
       gradientTransform="matrix(1.0232871,0,0,1.0232871,19.705736,0.052273)" />
    <linearGradient
       inkscape:collect="always"
       xlink:href="#fillGradient"
       id="linearGradient2476"
       x1="342.53027"
       y1="145.67395"
       x2="549.84833"
       y2="282.34061"
       gradientUnits="userSpaceOnUse" />
    <linearGradient
       inkscape:collect="always"
       xlink:href="#fillGradient"
       id="cross-gradient"
       x1="379.19693"
       y1="160.25282"
       x2="579.84833"
       y2="286.91949"
       gradientUnits="userSpaceOnUse"
       gradientTransform="matrix(1.0232871,0,0,1.0232871,19.705735,0.05227283)" />
    <linearGradient
       inkscape:collect="always"
       xlink:href="#fillGradient"
       id="top-base-gradient"
       x1="368.46912"
       y1="319.27548"
       x2="494.5513"
       y2="319.27548"
       gradientUnits="userSpaceOnUse"
       gradientTransform="matrix(1.0232871,0,0,1.0232871,19.705735,0.05227283)" />
    <linearGradient
       inkscape:collect="always"
       xlink:href="#fillGradient"
       id="crown-lower-gradient"
       x1="129.96214"
       y1="428.65894"
       x2="812.36853"
       y2="836.31329"
       gradientUnits="userSpaceOnUse"
       gradientTransform="matrix(1.0232871,0,0,1.0232871,19.705736,0.052273)" />
    <linearGradient
       inkscape:collect="always"
       xlink:href="#fillGradient"
       id="background-gradient"
       gradientUnits="userSpaceOnUse"
       x1="129.96214"
       y1="428.65894"
       x2="812.36853"
       y2="836.31329"
       gradientTransform="matrix(1.0232871,0,0,1.0232871,19.705736,0.052273)" />
    <linearGradient
       inkscape:collect="always"
       xlink:href="#fillGradient"
       id="bar1and5-gradient"
       gradientUnits="userSpaceOnUse"
       x1="129.96214"
       y1="428.65894"
       x2="812.36853"
       y2="836.31329"
       gradientTransform="matrix(1.0232871,0,0,1.0232871,19.705735,0.05227283)" />
    <linearGradient
       inkscape:collect="always"
       xlink:href="#fillGradient"
       id="bar3-gradient"
       gradientUnits="userSpaceOnUse"
       x1="129.96214"
       y1="428.65894"
       x2="812.36853"
       y2="836.31329"
       gradientTransform="matrix(1.0232871,0,0,1.0232871,19.705735,0.05227283)" />
    <linearGradient
       inkscape:collect="always"
       xlink:href="#fillGradient"
       id="linearGradient598"
       gradientUnits="userSpaceOnUse"
       x1="129.96214"
       y1="428.65894"
       x2="812.36853"
       y2="836.31329" />
    <filter
       style="color-interpolation-filters:sRGB;"
       id="filterBlur"
       x="-0.19086554"
       y="-0.16337513"
       width="1.3817311"
       height="1.3267503">
      <feGaussianBlur
         stdDeviation="50 50"
         result="blur"
         id="feGaussianBlur13" />
    </filter>
  </defs>
  <sodipodi:namedview
     id="namedview19"
     pagecolor="#ffffff"
     bordercolor="#666666"
     borderopacity="1.0"
     inkscape:pageopacity="0.0"
     inkscape:pageshadow="2"
     inkscape:zoom="1.2"
     inkscape:cx="415"
     inkscape:cy="516.66667"
     inkscape:current-layer="king"
     inkscape:document-units="px"
     inkscape:window-width="1846"
     inkscape:window-height="1016"
     inkscape:window-x="0"
     inkscape:window-y="0"
     inkscape:showpageshadow="2"
     inkscape:pagecheckerboard="0"
     inkscape:deskcolor="#d1d1d1"
     showgrid="false"
     inkscape:window-maximized="1"
     showguides="true" />
  <metadata
     id="metadata36225">
    <rdf:RDF>
      <cc:Work
         rdf:about="">
        <dc:format>image/svg+xml</dc:format>
        <dc:type
           rdf:resource="http://purl.org/dc/dcmitype/StillImage" />
        <dc:creator>
          <cc:Agent>
            <dc:title>Maurizio Monge</dc:title>
          </cc:Agent>
        </dc:creator>
        <dc:rights>
          <cc:Agent>
            <dc:title>Maurizio Monge</dc:title>
          </cc:Agent>
        </dc:rights>
        <cc:license
           rdf:resource="http://creativecommons.org/licenses/GPL/2.0/" />
      </cc:Work>
      <cc:License
         rdf:about="http://creativecommons.org/licenses/GPL/2.0/">
        <cc:permits
           rdf:resource="http://web.resource.org/cc/Reproduction" />
        <cc:permits
           rdf:resource="http://web.resource.org/cc/Distribution" />
        <cc:requires
           rdf:resource="http://web.resource.org/cc/Notice" />
        <cc:permits
           rdf:resource="http://web.resource.org/cc/DerivativeWorks" />
        <cc:requires
           rdf:resource="http://web.resource.org/cc/ShareAlike" />
        <cc:requires
           rdf:resource="http://web.resource.org/cc/SourceCode" />
      </cc:License>
    </rdf:RDF>
  </metadata>
  <path
     id="shadow"
     style="fill:#000"
     class="base shadow"
     d="M 479.85547 63.916016 C 463.77491 63.670412 447.0662 65.736248 437.47266 70.322266 C 433.42669 89.13948 454.31354 141.10627 448.25977 158.35156 C 431.18312 156.06342 369.40043 141.13056 341.4082 149.64844 C 328.89865 168.24549 334.33626 202.1251 343.04492 217.86914 C 373.96529 224.57887 421.67239 203.63455 444.50586 205.44141 C 448.13564 217.43054 442.12393 249.66401 436.41211 272.9043 C 420.16089 277.90417 407.47583 287.93352 406.07422 303.58398 C 405.5939 308.94717 405.31366 313.65353 405.13867 318.04297 C 400.30533 321.804 396.64789 326.17779 394.87109 331.26953 C 393.88695 334.08971 393.07248 336.76675 392.35352 339.36914 C 392.39952 339.20263 392.42368 339.05605 392.4707 338.88867 C 373.81816 326.88365 348.99338 318.27458 320.71289 316.59961 C 312.2691 316.0995 303.6933 315.88635 295.09766 315.99219 C 212.00632 317.01528 125.79384 347.23995 113.56055 423.69336 C 95.705627 535.28008 194.4943 601.04627 230.05469 719.07227 C 236.55066 715.36761 243.58665 711.91448 251.00195 708.66016 L 267.95898 760.67188 C 277.25721 797.94565 281.20898 831.94336 281.20898 831.94336 C 284.08533 831.05021 287.31844 830.26611 290.37109 829.42578 L 296.97656 849.6875 L 309.07422 849.90625 C 306.65876 850.64583 304.01743 851.33419 301.81641 852.12109 C 388.02266 862.40777 523.22165 864.32974 623.67969 855.59961 L 637.08594 855.8418 L 645.73242 832.25195 C 649.77685 833.535 653.91659 834.78178 657.65039 836.18164 C 657.65039 836.18164 662.82012 799.3689 669.89844 766.31641 L 692.09766 705.75 C 698.91847 708.49623 705.40194 711.37253 711.35156 714.43359 C 740.05226 623.1959 854.45832 516.56965 828.86914 423.56445 C 805.17162 337.43488 689.9656 312.2296 613.94727 316.53516 C 583.13776 318.28016 553.56108 328.25576 531.34961 341.95898 C 531.36231 342.03148 531.36455 342.09943 531.37695 342.17188 C 530.83568 339.03181 530.10138 335.82596 529.10352 332.52734 C 527.24301 326.37719 523.14381 321.21718 517.52734 316.99219 C 517.64393 312.34057 517.56498 307.24121 517.23828 301.54883 C 516.36857 286.39295 502.37537 276.44972 484.65625 271.9375 C 479.29974 249.80309 473.57391 219.48483 480.71875 205.07422 C 504.75693 200.30591 562.4496 216.70178 584.24023 209.44336 C 598.464 189.91824 596.55129 159.36709 587.73438 142.26758 C 567.29499 138.29087 507.42256 154.57506 488.20117 155.56055 C 488.90141 139.14806 517.74949 91.144208 518.4707 71.380859 C 511.39015 66.719244 495.93605 64.16162 479.85547 63.916016 z M 592.95898 405.44141 C 612.42176 405.59263 630.17476 407.30613 640.71289 413.26758 C 689.72874 440.99609 697.14616 534.79067 611.57227 577.24609 C 613.77745 536.65692 624.906 487.60283 620.24609 459.77734 C 616.78253 439.09613 606.29944 420.45062 592.95898 405.44141 z M 335.36719 409.08008 C 325.43819 422.3959 317.91059 437.9346 315.08008 454.83594 C 310.58486 481.67768 320.82148 528.31064 323.53125 568.00977 C 238.71028 512.05245 247.26207 427.2474 321.47852 410.29492 C 324.72728 409.55283 329.58105 409.20981 335.36719 409.08008 z M 514.53711 425.11328 C 530.01267 440.75176 555.2923 452.08008 565.19727 476.27734 C 576.10035 502.91268 577.39896 542.38919 566.29102 576.29688 C 564.08163 575.04218 561.43168 573.60019 559.10547 572.28516 C 519.0254 541.83414 517.81149 507.50346 512.07812 459.56445 C 510.5815 447.05079 511.94952 435.77986 514.53711 425.11328 z M 407.83008 431.29297 C 409.76005 439.7909 411.18933 449.3522 411.58984 460.62695 C 412.94307 498.72244 399.14813 544.71399 369.91797 574.00195 C 357.84979 539.52239 358.9374 498.66244 370.125 471.33203 C 377.57636 453.12898 393.67515 442.23413 407.83008 431.29297 z " />
  <path
     id="boundary"
     class="base stroke-color stroke-boundary"
     style="fill:none"
     d="m 479.85515,63.915779 c -16.08056,-0.245604 -32.78893,1.81952 -42.38247,6.405538 -4.04597,18.817214 16.84025,70.785383 10.78648,88.030673 -17.07665,-2.28814 -78.85932,-17.22182 -106.85155,-8.70394 -12.50955,18.59705 -7.0718,52.47644 1.63686,68.22048 30.92037,6.70973 78.62784,-14.23421 101.46131,-12.42735 3.62978,11.98913 -2.38254,44.22271 -8.09436,67.463 -16.25122,4.99987 -28.93526,15.03016 -30.33687,30.68062 -0.48032,5.36319 -0.76035,10.06849 -0.93534,14.45793 -4.83334,3.76103 -8.49205,8.13505 -10.26885,13.22679 -0.98414,2.82018 -1.79729,5.49796 -2.51625,8.10035 0.046,-0.16651 0.0689,-0.31428 0.11592,-0.48166 -18.65254,-12.00502 -43.47752,-20.6135 -71.75801,-22.28847 -8.44379,-0.50011 -17.01851,-0.71342 -25.61415,-0.60758 -83.09134,1.02309 -169.30423,31.24755 -181.53752,107.70096 C 95.70543,535.27984 194.4948,601.04533 230.05519,719.07133 342.93057,654.69852 603.2127,658.7974 711.35187,714.43457 740.05257,623.19688 854.45917,516.57041 828.86999,423.56521 805.17247,337.43564 689.96606,312.23022 613.94773,316.53578 c -30.80951,1.745 -60.38699,11.71907 -82.59846,25.42229 0.0127,0.0725 0.0155,0.1414 0.0279,0.21384 -0.54127,-3.14006 -1.27655,-6.34665 -2.27441,-9.64527 -1.86051,-6.15015 -5.95946,-11.31019 -11.57593,-15.53518 0.11659,-4.65162 0.0389,-9.75085 -0.2878,-15.44323 -0.86971,-15.15588 -14.86419,-25.09915 -32.58331,-29.61137 -5.35651,-22.13441 -11.0821,-52.45281 -3.93726,-66.86342 24.03818,-4.76831 81.73125,11.62737 103.52188,4.36895 14.22377,-19.52512 12.31049,-50.07568 3.49357,-67.17519 -20.43938,-3.97671 -80.31127,12.30724 -99.53266,13.29273 0.70024,-16.41249 29.5477,-64.416002 30.26891,-84.179351 -7.08055,-4.661615 -22.53451,-7.219196 -38.61509,-7.4648 z m 113.1032,341.526061 c 19.46278,0.15122 37.2166,1.8651 47.75473,7.82655 49.01585,27.72851 56.43219,121.52233 -29.1417,163.97775 2.20518,-40.58917 13.33387,-89.64267 8.67396,-117.46816 -3.46356,-20.68121 -13.94653,-39.32693 -27.28699,-54.33614 z m -257.59053,3.63747 c -9.929,13.31582 -17.45737,28.85477 -20.28788,45.75611 -4.49522,26.84174 5.74235,73.47603 8.45212,113.17516 -84.82097,-55.95732 -76.26902,-140.76364 -2.05257,-157.71612 3.24876,-0.74209 8.10219,-1.08542 13.88833,-1.21515 z m 179.16917,16.03482 c 15.47556,15.63848 40.75573,26.9651 50.6607,51.16236 10.90308,26.63534 12.20118,66.11263 1.09324,100.02032 -2.20939,-1.2547 -4.85878,-2.69618 -7.18499,-4.01121 -40.08007,-30.45102 -41.29388,-64.78245 -47.02724,-112.72146 -1.49662,-12.51366 -0.1293,-23.78343 2.45829,-34.45001 z m -106.70765,6.17969 c 1.92997,8.49793 3.36086,18.05882 3.76137,29.33357 1.35323,38.09549 -12.4428,84.08705 -41.67296,113.37501 -12.06818,-34.47956 -10.97975,-75.34005 0.20785,-102.67046 7.45136,-18.20305 23.54881,-29.09696 37.70374,-40.03812 z m 64.37314,265.09132 c -79.44124,-0.0486 -159.75176,12.71463 -211.15489,39.39456 14.40145,45.50834 20.16195,96.16299 20.16195,96.16299 93.80114,-29.12655 284.34608,-30.28906 376.44174,4.23905 0,0 9.49602,-68.23305 20.49572,-102.3207 -47.92881,-24.56617 -126.50327,-37.42725 -205.94452,-37.4759 z m -2.04057,136.4909 c -65.91555,-0.26286 -132.11475,6.29168 -168.34472,19.2446 89.91009,10.72864 233.52668,12.4899 334.99061,2.41432 -35.09719,-14.31579 -100.73035,-21.39604 -166.64589,-21.65892 z" />
  <path
     class="base stroke-color stroke-medium"
     style="fill:url(#linearGradient2272)"
     d="m 315.06197,626.80043 c 23.73248,-34.29055 -7.2153,-128.76932 0.0188,-171.96513 11.74028,-70.10345 103.85269,-117.15654 116.14779,-76.51291 14.58502,48.21319 -44.62749,52.76426 -61.102,93.01034 -15.13227,36.96697 -11.8949,98.72899 17.56585,135.90245"
     id="bar2"
     sodipodi:nodetypes="csssc" />
  <path
     sodipodi:nodetypes="csssc"
     id="bar4"
     d="m 620.26317,631.74383 c -23.73248,-34.29055 7.2153,-128.76932 -0.0187,-171.96513 -11.74037,-70.10335 -103.85279,-117.1565 -116.14789,-76.51292 -14.58501,48.2132 44.62749,52.76427 61.10201,93.01045 15.13226,36.96697 11.89499,98.72899 -17.56585,135.90245"
     class="base stroke-color stroke-medium"
     style="fill:url(#linearGradient2274)" />
  <path
     class="base stroke-color stroke-medium"
     style="fill:url(#cross-gradient)"
     d="m 430.26558,294.8769 c 5.38003,-15.3498 19.34452,-72.5767 14.24027,-89.43605 -22.83353,-1.80689 -70.54061,19.13764 -101.46107,12.42787 -8.70868,-15.74407 -14.14612,-49.62256 -1.63654,-68.21967 27.99232,-8.51788 89.77369,6.41446 106.85041,8.70261 6.05377,-17.24533 -14.83183,-69.212558 -10.78586,-88.029825 19.18715,-9.17206 66.83549,-8.265243 80.99666,1.058017 -0.72122,19.763409 -29.56788,67.766988 -30.26812,84.179538 19.22143,-0.98548 79.09354,-17.26812 99.53299,-13.29141 8.81695,17.09957 10.72998,47.64933 -3.49381,67.17452 -21.7907,7.25845 -79.48383,-9.1378 -103.52207,-4.3695 -10.13023,20.43191 5.61877,73.18857 9.49365,88.62217"
     id="cross"
     sodipodi:nodetypes="cccccccccccc" />
  <path
     class="base stroke-color stroke-medium"
     style="fill:url(#top-base-gradient)"
     d="m 437.62618,380.54323 c -25.31121,-21.91707 -36.46371,-22.09911 -31.5507,-76.9575 4.19548,-46.84737 108.73132,-44.4301 111.16398,-2.03725 3.05031,53.15664 -14.62329,57.13744 -26.91205,82.87516"
     id="top-base"
     sodipodi:nodetypes="csss" />
  <path
     sodipodi:nodetypes="ccccc"
     id="background"
     d="M 296.97737,849.68669 231.51238,648.87396 713.71926,646.75811 637.08529,855.84084 Z"
     class="base stroke-color stroke-medium"
     style="fill:url(#background-gradient)" />
  <path
     sodipodi:nodetypes="cscsccscsccssccsc"
     id="bar1and5"
     d="m 586.12712,587.45105 c -29.43079,-15.90881 -91.2467,-54.78611 -124.80451,-56.17387 -25.64964,-1.06073 -78.5945,33.23556 -105.81882,54.31916 C 237.54652,531.90761 238.95601,429.14446 321.4795,410.29447 c 13.4408,-3.07015 53.44801,0.47437 79.88035,-0.73549 -8.41685,-23.24457 -17.59206,-39.72784 -8.88981,-70.67077 -18.6527,-12.0051 -43.47728,-20.61349 -71.75801,-22.28847 -8.44388,-0.5001 -17.01843,-0.71341 -25.61415,-0.60758 -83.092,1.0231 -169.30415,31.24699 -181.53753,107.70097 -17.855082,111.58762 80.93421,177.35123 116.49484,295.37822 112.87628,-64.3733 373.15662,-60.27434 481.29669,-4.63677 28.70095,-91.23843 143.10755,-197.86342 117.51813,-290.86936 -23.69769,-86.13023 -138.90337,-111.335 -214.92227,-107.02943 -30.80975,1.745 -60.38682,11.71899 -82.59846,25.42229 4.29987,24.52935 -4.41537,44.58402 -11.63989,65.77817 35.14491,0.0153 96.80454,-8.15745 121.0037,5.53214 53.44578,30.23456 57.52092,139.06125 -54.58597,174.18266 z"
     class="base stroke-color stroke-medium"
     style="fill:url(#bar1and5-gradient)" />
  <path
     class="base stroke-color stroke-medium"
     style="fill:url(#bar3-gradient)"
     d="m 355.84324,585.91286 c 38.87989,-27.29946 57.30234,-81.51617 55.74755,-125.28595 -2.24192,-63.11236 -35.99862,-74.11321 -16.72051,-129.35792 13.07198,-37.45992 121.93827,-39.38522 134.23347,1.25838 14.58491,48.21315 -22.86238,78.22944 -17.02514,127.03655 6.80936,56.9358 7.23157,94.67667 73.97813,129.5198"
     id="bar3"
     sodipodi:nodetypes="cssssc" />
  <path
     class="base stroke-color stroke-medium"
     style="fill:url(#crown-lower-gradient)"
     d="m 678.14602,733.86092 c -95.85782,-49.1324 -314.29131,-51.44077 -417.09778,1.91918 14.40146,45.50844 20.16212,96.16166 20.16212,96.16166 93.80132,-29.12662 284.3444,-30.28892 376.44024,4.23928 0,0 9.4957,-68.23238 20.49542,-102.32012 z"
     id="crown-lower"
     sodipodi:nodetypes="ccccc" />
  <path
     class="base stroke-color stroke-medium"
     style="fill:url(#base-gradient)"
     d="m 301.81727,852.12068 c 89.91018,10.72865 233.52566,12.48993 334.98969,2.41434 -70.19446,-28.63159 -262.52967,-28.3202 -334.98969,-2.41434 z"
     id="base"
     sodipodi:nodetypes="ccc" />
  <path
     id="jewel-center"
     class="base stroke-color stroke-medium fill-color"
     d="M 466.58984 737.77148 A 17.302036 16.478127 0 0 0 449.28711 754.25 A 17.302036 16.478127 0 0 0 466.58984 770.72852 A 17.302036 16.478127 0 0 0 483.89062 754.25 A 17.302036 16.478127 0 0 0 466.58984 737.77148 z " />
  <path
     id="jewel-right"
     class="base stroke-color stroke-medium fill-color"
     d="M 562.95312 753.42578 A 18.849028 12.358582 9.2178939 0 0 547.25195 762.9707 A 18.849028 12.358582 9.2178939 0 0 563.87695 778.18945 A 18.849028 12.358582 9.2178939 0 0 584.46289 769.00977 A 18.849028 12.358582 9.2178939 0 0 567.83594 753.79102 A 18.849028 12.358582 9.2178939 0 0 562.95312 753.42578 z " />
  <path
     id="jewel-left"
     class="base stroke-color stroke-medium fill-color"
     d="M 367.88867 753.35156 A 12.358595 19.338415 79.734797 0 0 362.88867 753.83008 A 12.358595 19.338415 79.734797 0 0 346.06055 769.4375 A 12.358595 19.338415 79.734797 0 0 367.29297 778.15039 A 12.358595 19.338415 79.734797 0 0 384.11914 762.54492 A 12.358595 19.338415 79.734797 0 0 367.88867 753.35156 z " />
</svg>
