<?xml version="1.0" encoding="UTF-8" standalone="no"?>
<!-- Created with Inkscape (http://www.inkscape.org/) -->

<svg
   width="700pt"
   height="700pt"
   id="king"
   viewBox="0 0 933.333 933.333"
   sodipodi:version="0.32"
   inkscape:version="1.2.1 (9c6d41e410, 2022-07-14)"
   version="1.0"
   inkscape:export-filename="/home/maurizio/out/wk.png"
   inkscape:export-xdpi="90"
   inkscape:export-ydpi="90"
   sodipodi:docname="k.svg"
   xmlns:inkscape="http://www.inkscape.org/namespaces/inkscape"
   xmlns:sodipodi="http://sodipodi.sourceforge.net/DTD/sodipodi-0.dtd"
   xmlns:xlink="http://www.w3.org/1999/xlink"
   xmlns="http://www.w3.org/2000/svg"
   xmlns:svg="http://www.w3.org/2000/svg"
   xmlns:rdf="http://www.w3.org/1999/02/22-rdf-syntax-ns#"
   xmlns:cc="http://creativecommons.org/ns#"
   xmlns:dc="http://purl.org/dc/elements/1.1/">
  <style
     id="style-base">
    .base { 
      fill-opacity:1;
      fill-rule:evenodd;
      stroke-miterlimit:4;
      stroke-dasharray:none;
      stroke-linecap:round;
      stroke-linejoin:round;
      stroke-opacity:1
    }
  </style>
  <style
     id="stroke-medium">
    .stroke-medium {
      stroke-width: 18;
    }
  </style>
  <style
     id="stroke-boundary">
    .stroke-boundary {
      stroke-width: 30;
    }
  </style>
  <style
     id="stroke-color">
    .stroke-color {
      stroke:#ff0000;
    }
  </style>
  <style
     id="fill-color">
    .fill-color {
      fill:#00ff00;
    }
  </style>
  <defs
     id="defs36222">
    <linearGradient
       id="fillGradient">
      <stop
         style="stop-color:#ffffff;stop-opacity:1;"
         offset="0"
         id="stop0" />
      <stop
         style="stop-color:#00ffff;stop-opacity:1"
         offset="1"
         id="stop1" />
    </linearGradient>
    <linearGradient
       inkscape:collect="always"
       xlink:href="#fillGradient"
       id="linearGradient2272"
       x1="297.55386"
       y1="427.04959"
       x2="368.56238"
       y2="521.21625"
       gradientUnits="userSpaceOnUse"
       gradientTransform="matrix(1.0232871,0,0,1.0232871,19.705736,0.052273)" />
    <linearGradient
       inkscape:collect="always"
       xlink:href="#fillGradient"
       id="linearGradient2274"
       x1="495.29623"
       y1="448.54721"
       x2="595.97144"
       y2="528.54724"
       gradientUnits="userSpaceOnUse"
       gradientTransform="matrix(1.0232871,0,0,1.0232871,19.705736,0.052273)" />
    <linearGradient
       inkscape:collect="always"
       xlink:href="#fillGradient"
       id="base-gradient"
       x1="221.55104"
       y1="774.93707"
       x2="633.49097"
       y2="859.35083"
       gradientUnits="userSpaceOnUse"
       gradientTransform="matrix(1.0232871,0,0,1.0232871,19.705736,0.052273)" />
    <linearGradient
       inkscape:collect="always"
       xlink:href="#fillGradient"
       id="linearGradient2476"
       x1="342.53027"
       y1="145.67395"
       x2="549.84833"
       y2="282.34061"
       gradientUnits="userSpaceOnUse" />
    <linearGradient
       inkscape:collect="always"
       xlink:href="#fillGradient"
       id="cross-gradient"
       x1="379.19693"
       y1="160.25282"
       x2="579.84833"
       y2="286.91949"
       gradientUnits="userSpaceOnUse" />
    <linearGradient
       inkscape:collect="always"
       xlink:href="#fillGradient"
       id="top-base-gradient"
       x1="368.46912"
       y1="319.27548"
       x2="494.5513"
       y2="319.27548"
       gradientUnits="userSpaceOnUse" />
    <linearGradient
       inkscape:collect="always"
       xlink:href="#fillGradient"
       id="crown-lower-gradient"
       x1="129.96214"
       y1="428.65894"
       x2="812.36853"
       y2="836.31329"
       gradientUnits="userSpaceOnUse"
       gradientTransform="matrix(1.0232871,0,0,1.0232871,19.705736,0.052273)" />
    <linearGradient
       inkscape:collect="always"
       xlink:href="#fillGradient"
       id="background-gradient"
       gradientUnits="userSpaceOnUse"
       x1="129.96214"
       y1="428.65894"
       x2="812.36853"
       y2="836.31329"
       gradientTransform="matrix(1.0232871,0,0,1.0232871,19.705736,0.052273)" />
    <linearGradient
       inkscape:collect="always"
       xlink:href="#fillGradient"
       id="bar1and5-gradient"
       gradientUnits="userSpaceOnUse"
       x1="129.96214"
       y1="428.65894"
       x2="812.36853"
       y2="836.31329" />
    <linearGradient
       inkscape:collect="always"
       xlink:href="#fillGradient"
       id="bar3-gradient"
       gradientUnits="userSpaceOnUse"
       x1="129.96214"
       y1="428.65894"
       x2="812.36853"
       y2="836.31329" />
    <linearGradient
       inkscape:collect="always"
       xlink:href="#fillGradient"
       id="linearGradient598"
       gradientUnits="userSpaceOnUse"
       x1="129.96214"
       y1="428.65894"
       x2="812.36853"
       y2="836.31329" />
  </defs>
  <sodipodi:namedview
     id="namedview19"
     pagecolor="#ffffff"
     bordercolor="#666666"
     borderopacity="1.0"
     inkscape:pageopacity="0.0"
     inkscape:pageshadow="2"
     inkscape:zoom="0.6"
     inkscape:cx="487.5"
     inkscape:cy="463.33333"
     inkscape:current-layer="king"
     inkscape:document-units="px"
     inkscape:window-width="1283"
     inkscape:window-height="941"
     inkscape:window-x="32"
     inkscape:window-y="74"
     inkscape:showpageshadow="2"
     inkscape:pagecheckerboard="0"
     inkscape:deskcolor="#d1d1d1"
     showgrid="false"
     inkscape:window-maximized="0"
     showguides="true" />
  <metadata
     id="metadata36225">
    <rdf:RDF>
      <cc:Work
         rdf:about="">
        <dc:format>image/svg+xml</dc:format>
        <dc:type
           rdf:resource="http://purl.org/dc/dcmitype/StillImage" />
        <dc:creator>
          <cc:Agent>
            <dc:title>Maurizio Monge</dc:title>
          </cc:Agent>
        </dc:creator>
        <dc:rights>
          <cc:Agent>
            <dc:title>Maurizio Monge</dc:title>
          </cc:Agent>
        </dc:rights>
        <cc:license
           rdf:resource="http://creativecommons.org/licenses/GPL/2.0/" />
      </cc:Work>
      <cc:License
         rdf:about="http://creativecommons.org/licenses/GPL/2.0/">
        <cc:permits
           rdf:resource="http://web.resource.org/cc/Reproduction" />
        <cc:permits
           rdf:resource="http://web.resource.org/cc/Distribution" />
        <cc:requires
           rdf:resource="http://web.resource.org/cc/Notice" />
        <cc:permits
           rdf:resource="http://web.resource.org/cc/DerivativeWorks" />
        <cc:requires
           rdf:resource="http://web.resource.org/cc/ShareAlike" />
        <cc:requires
           rdf:resource="http://web.resource.org/cc/SourceCode" />
      </cc:License>
    </rdf:RDF>
  </metadata>
  <path
     id="boundary"
     class="base stroke-color stroke-boundary"
     style="fill:none"
     d="m 479.85515,63.915779 c -16.08056,-0.245604 -32.78893,1.81952 -42.38247,6.405538 -4.04597,18.817214 16.84025,70.785383 10.78648,88.030673 -17.07665,-2.28814 -78.85932,-17.22182 -106.85155,-8.70394 -12.50955,18.59705 -7.0718,52.47644 1.63686,68.22048 30.92037,6.70973 78.62784,-14.23421 101.46131,-12.42735 3.62978,11.98913 -2.38254,44.22271 -8.09436,67.463 -16.25122,4.99987 -28.93526,15.03016 -30.33687,30.68062 -0.48032,5.36319 -0.76035,10.06849 -0.93534,14.45793 -4.83334,3.76103 -8.49205,8.13505 -10.26885,13.22679 -0.98414,2.82018 -1.79729,5.49796 -2.51625,8.10035 0.046,-0.16651 0.0689,-0.31428 0.11592,-0.48166 -18.65254,-12.00502 -43.47752,-20.6135 -71.75801,-22.28847 -8.44379,-0.50011 -17.01851,-0.71342 -25.61415,-0.60758 -83.09134,1.02309 -169.30423,31.24755 -181.53752,107.70096 C 95.70543,535.27984 194.4948,601.04533 230.05519,719.07133 342.93057,654.69852 603.2127,658.7974 711.35187,714.43457 740.05257,623.19688 854.45917,516.57041 828.86999,423.56521 805.17247,337.43564 689.96606,312.23022 613.94773,316.53578 c -30.80951,1.745 -60.38699,11.71907 -82.59846,25.42229 0.0127,0.0725 0.0155,0.1414 0.0279,0.21384 -0.54127,-3.14006 -1.27655,-6.34665 -2.27441,-9.64527 -1.86051,-6.15015 -5.95946,-11.31019 -11.57593,-15.53518 0.11659,-4.65162 0.0389,-9.75085 -0.2878,-15.44323 -0.86971,-15.15588 -14.86419,-25.09915 -32.58331,-29.61137 -5.35651,-22.13441 -11.0821,-52.45281 -3.93726,-66.86342 24.03818,-4.76831 81.73125,11.62737 103.52188,4.36895 14.22377,-19.52512 12.31049,-50.07568 3.49357,-67.17519 -20.43938,-3.97671 -80.31127,12.30724 -99.53266,13.29273 0.70024,-16.41249 29.5477,-64.416002 30.26891,-84.179351 -7.08055,-4.661615 -22.53451,-7.219196 -38.61509,-7.4648 z m 113.1032,341.526061 c 19.46278,0.15122 37.2166,1.8651 47.75473,7.82655 49.01585,27.72851 56.43219,121.52233 -29.1417,163.97775 2.20518,-40.58917 13.33387,-89.64267 8.67396,-117.46816 -3.46356,-20.68121 -13.94653,-39.32693 -27.28699,-54.33614 z m -257.59053,3.63747 c -9.929,13.31582 -17.45737,28.85477 -20.28788,45.75611 -4.49522,26.84174 5.74235,73.47603 8.45212,113.17516 -84.82097,-55.95732 -76.26902,-140.76364 -2.05257,-157.71612 3.24876,-0.74209 8.10219,-1.08542 13.88833,-1.21515 z m 179.16917,16.03482 c 15.47556,15.63848 40.75573,26.9651 50.6607,51.16236 10.90308,26.63534 12.20118,66.11263 1.09324,100.02032 -2.20939,-1.2547 -4.85878,-2.69618 -7.18499,-4.01121 -40.08007,-30.45102 -41.29388,-64.78245 -47.02724,-112.72146 -1.49662,-12.51366 -0.1293,-23.78343 2.45829,-34.45001 z m -106.70765,6.17969 c 1.92997,8.49793 3.36086,18.05882 3.76137,29.33357 1.35323,38.09549 -12.4428,84.08705 -41.67296,113.37501 -12.06818,-34.47956 -10.97975,-75.34005 0.20785,-102.67046 7.45136,-18.20305 23.54881,-29.09696 37.70374,-40.03812 z m 64.37314,265.09132 c -79.44124,-0.0486 -159.75176,12.71463 -211.15489,39.39456 14.40145,45.50834 20.16195,96.16299 20.16195,96.16299 93.80114,-29.12655 284.34608,-30.28906 376.44174,4.23905 0,0 9.49602,-68.23305 20.49572,-102.3207 -47.92881,-24.56617 -126.50327,-37.42725 -205.94452,-37.4759 z m -2.04057,136.4909 c -65.91555,-0.26286 -132.11475,6.29168 -168.34472,19.2446 89.91009,10.72864 233.52668,12.4899 334.99061,2.41432 -35.09719,-14.31579 -100.73035,-21.39604 -166.64589,-21.65892 z" />
  <path
     class="base stroke-color stroke-medium"
     style="fill:url(#linearGradient2272)"
     d="m 315.06197,626.80043 c 23.73248,-34.29055 -7.2153,-128.76932 0.0188,-171.96513 11.74028,-70.10345 103.85269,-117.15654 116.14779,-76.51291 14.58502,48.21319 -44.62749,52.76426 -61.102,93.01034 -15.13227,36.96697 -11.8949,98.72899 17.56585,135.90245"
     id="bar2"
     sodipodi:nodetypes="csssc" />
  <path
     sodipodi:nodetypes="csssc"
     id="bar4"
     d="m 620.26317,631.74383 c -23.73248,-34.29055 7.2153,-128.76932 -0.0187,-171.96513 -11.74037,-70.10335 -103.85279,-117.1565 -116.14789,-76.51292 -14.58501,48.2132 44.62749,52.76427 61.10201,93.01045 15.13226,36.96697 11.89499,98.72899 -17.56585,135.90245"
     class="base stroke-color stroke-medium"
     style="fill:url(#linearGradient2274)" />
  <g
     id="top-part"
     transform="matrix(1.0232871,0,0,1.0232871,19.705735,0.05227283)">
    <path
       class="base stroke-color stroke-medium"
       style="fill:url(#cross-gradient)"
       d="m 401.21667,288.11526 c 5.2576,-15.00048 18.9043,-70.92506 13.9162,-87.40074 -22.3139,-1.76577 -68.9353,18.70212 -99.1521,12.14505 -8.5105,-15.38578 -13.8242,-48.4933 -1.5993,-66.66719 27.3553,-8.32404 87.7307,6.26849 104.4188,8.50456 5.916,-16.85287 -14.4943,-67.637473 -10.5404,-86.026513 18.7505,-8.96333 65.3145,-8.07715 79.1534,1.03394 -0.7048,19.31365 -28.895,66.224803 -29.5793,82.263853 18.784,-0.96306 77.2936,-16.87515 97.2679,-12.98894 8.6163,16.71044 10.4858,46.56497 -3.4143,65.64582 -21.2948,7.09327 -77.675,-8.92985 -101.1662,-4.27006 -9.8997,19.96694 5.4909,71.52301 9.2776,86.60538"
       id="cross"
       sodipodi:nodetypes="cccccccccccc" />
    <path
       class="base stroke-color stroke-medium"
       style="fill:url(#top-base-gradient)"
       d="m 408.40977,371.83207 c -24.7352,-21.4183 -35.6339,-21.5962 -30.8327,-75.20617 4.1,-45.78126 106.2569,-43.419 108.6342,-1.99089 2.9809,51.94695 -14.2905,55.83716 -26.2996,80.98916"
       id="top-base"
       sodipodi:nodetypes="csss" />
  </g>
  <path
     sodipodi:nodetypes="ccccc"
     id="background"
     d="M 296.97737,849.68669 231.51238,648.87396 713.71926,646.75811 637.08529,855.84084 Z"
     class="base stroke-color stroke-medium"
     style="fill:url(#background-gradient)" />
  <g
     id="crown-upper"
     transform="matrix(1.0232871,0,0,1.0232871,19.705735,0.05227283)">
    <path
       sodipodi:nodetypes="cscsccscsccssccsc"
       id="bar1and5"
       d="m 553.53125,574.03125 c -28.76103,-15.54677 -89.17019,-53.53933 -121.96432,-54.89551 -25.06592,-1.03659 -76.80591,32.47921 -103.41068,53.08301 -115.2729,-52.46693 -113.89549,-152.89148 -33.25,-171.3125 13.13493,-3.00028 52.23169,0.46358 78.0625,-0.71875 -8.2253,-22.71559 -17.19171,-38.82375 -8.6875,-69.0625 -18.22822,-11.7319 -42.48786,-20.14439 -70.125,-21.78125 C 285.90453,308.85503 277.52511,308.64657 269.125,308.75 187.92394,309.74981 103.67373,339.28589 91.71875,414 74.27,523.0482 170.81113,587.31522 205.5625,702.65625 315.87004,639.7479 570.22714,643.75358 675.90625,698.125 703.95405,608.9629 815.75708,504.76439 790.75,413.875 767.5916,329.70485 655.00768,305.07367 580.71875,309.28125 550.61014,310.98654 521.70616,320.73355 500,334.125 c 4.20201,23.97114 -4.31489,43.56942 -11.375,64.28125 34.34511,0.0149 94.60154,-7.97181 118.25,5.40625 52.2295,29.5465 56.2119,135.89661 -53.34375,170.21875 z"
       class="base stroke-color stroke-medium"
       style="fill:url(#bar1and5-gradient)" />
    <path
       class="base stroke-color stroke-medium"
       style="fill:url(#bar3-gradient)"
       d="m 328.48797,572.52807 c 37.9951,-26.6782 55.9983,-79.6611 54.4789,-122.4348 -2.1909,-61.6761 -35.1794,-72.4266 -16.34,-126.4141 12.7745,-36.60744 119.1633,-38.48893 131.1787,1.22974 14.253,47.11596 -22.3421,76.44916 -16.6377,124.14556 6.6544,55.6401 7.067,92.5221 72.2946,126.5723"
       id="bar3"
       sodipodi:nodetypes="cssssc" />
  </g>
  <path
     class="base stroke-color stroke-medium"
     style="fill:url(#crown-lower-gradient)"
     d="m 678.14602,733.86092 c -95.85782,-49.1324 -314.29131,-51.44077 -417.09778,1.91918 14.40146,45.50844 20.16212,96.16166 20.16212,96.16166 93.80132,-29.12662 284.3444,-30.28892 376.44024,4.23928 0,0 9.4957,-68.23238 20.49542,-102.32012 z"
     id="crown-lower"
     sodipodi:nodetypes="ccccc" />
  <path
     class="base stroke-color stroke-medium"
     style="fill:url(#base-gradient)"
     d="m 301.81727,852.12068 c 89.91018,10.72865 233.52566,12.48993 334.98969,2.41434 -70.19446,-28.63159 -262.52967,-28.3202 -334.98969,-2.41434 z"
     id="base"
     sodipodi:nodetypes="ccc" />
  <ellipse
     class="base stroke-color stroke-medium fill-color"
     id="jewel-center"
     cx="466.58896"
     cy="754.25037"
     rx="17.302036"
     ry="16.478127" />
  <ellipse
     id="jewel-left"
     class="base stroke-color stroke-medium fill-color"
     transform="rotate(-10.265203)"
     cx="222.74344"
     cy="818.79028"
     rx="19.338415"
     ry="12.358595" />
  <ellipse
     transform="matrix(0.98708607,0.16019082,-0.16019261,0.98708578,0,0)"
     class="base stroke-color stroke-medium fill-color"
     id="jewel-right"
     cx="681.25513"
     cy="665.45282"
     rx="18.849028"
     ry="12.358582" />
</svg>
