<?xml version="1.0" encoding="UTF-8" standalone="no"?>
<!-- Created with Inkscape (http://www.inkscape.org/) -->

<svg
   width="700pt"
   height="700pt"
   id="knight"
   sodipodi:version="0.32"
   inkscape:version="1.2.1 (9c6d41e410, 2022-07-14)"
   version="1.0"
   inkscape:export-filename="/home/maurizio/out/wn.png"
   inkscape:export-xdpi="90"
   inkscape:export-ydpi="90"
   sodipodi:docname="n.svg"
   viewBox="0 0 933.333 933.333"
   xmlns:inkscape="http://www.inkscape.org/namespaces/inkscape"
   xmlns:sodipodi="http://sodipodi.sourceforge.net/DTD/sodipodi-0.dtd"
   xmlns:xlink="http://www.w3.org/1999/xlink"
   xmlns="http://www.w3.org/2000/svg"
   xmlns:svg="http://www.w3.org/2000/svg"
   xmlns:rdf="http://www.w3.org/1999/02/22-rdf-syntax-ns#"
   xmlns:cc="http://creativecommons.org/ns#"
   xmlns:dc="http://purl.org/dc/elements/1.1/">
  <style
     id="base">
    .base { 
      fill-opacity:1;
      fill-rule:evenodd;
      stroke-miterlimit:4;
      stroke-dasharray:none;
      stroke-linecap:round;
      stroke-linejoin:round;
      stroke-opacity:1
    }
  </style>
  <style
     id="stroke-medium">
    .stroke-medium {
      stroke-width: 18;
    }
  </style>
  <style
     id="stroke-boundary">
    .stroke-boundary {
      stroke-width: 30;
    }
  </style>
  <style
     id="stroke-color">
    .stroke-color {
      stroke:#ff0000;
    }
  </style>
  <defs
     id="defs36222">
    <linearGradient
       id="fillGradient">
      <stop
         style="stop-color:#ffffff;stop-opacity:1;"
         offset="0"
         id="stop0" />
      <stop
         style="stop-color:#00ffff;stop-opacity:1"
         offset="1"
         id="stop1" />
    </linearGradient>
    <linearGradient
       inkscape:collect="always"
       xlink:href="#fillGradient"
       id="hair4-gradient"
       gradientUnits="userSpaceOnUse"
       x1="705.29126"
       y1="378.28769"
       x2="787.12555"
       y2="465.62366"
       gradientTransform="matrix(1.0492223,0,0,1.0492223,-0.21823206,1.0162182)" />
    <linearGradient
       inkscape:collect="always"
       xlink:href="#fillGradient"
       id="hair3-gradient"
       gradientUnits="userSpaceOnUse"
       x1="667.0329"
       y1="299.32745"
       x2="739.15356"
       y2="348.42047"
       gradientTransform="matrix(1.0492223,0,0,1.0492223,3.9786573,1.0162182)" />
    <linearGradient
       inkscape:collect="always"
       xlink:href="#fillGradient"
       id="hair2-gradient"
       gradientUnits="userSpaceOnUse"
       x1="598.67926"
       y1="209.76059"
       x2="705.53198"
       y2="232.28799"
       gradientTransform="matrix(1.0492223,0,0,1.0492223,-0.21823206,1.0162182)" />
    <linearGradient
       inkscape:collect="always"
       xlink:href="#fillGradient"
       id="hair1-gradient"
       gradientUnits="userSpaceOnUse"
       x1="493.79175"
       y1="157.9061"
       x2="625.8526"
       y2="159.48897"
       gradientTransform="matrix(1.0492223,0,0,1.0492223,3.9786573,-5.2791163)" />
    <linearGradient
       inkscape:collect="always"
       xlink:href="#fillGradient"
       id="body-gradient"
       gradientUnits="userSpaceOnUse"
       x1="265.6459"
       y1="255.9399"
       x2="753.20837"
       y2="854.32837"
       gradientTransform="matrix(1.0492223,0,0,1.0492223,-0.21823206,1.0162182)" />
  </defs>
  <sodipodi:namedview
     id="namedview16"
     pagecolor="#ffffff"
     bordercolor="#666666"
     borderopacity="1.0"
     inkscape:pageopacity="0.0"
     inkscape:pageshadow="2"
     inkscape:zoom="0.42426407"
     inkscape:cx="538.57966"
     inkscape:cy="529.15157"
     inkscape:current-layer="knight"
     inkscape:document-units="px"
     inkscape:window-width="1304"
     inkscape:window-height="832"
     inkscape:window-x="255"
     inkscape:window-y="74"
     inkscape:showpageshadow="2"
     inkscape:pagecheckerboard="0"
     inkscape:deskcolor="#d1d1d1"
     showgrid="false"
     inkscape:window-maximized="0" />
  <metadata
     id="metadata36225">
    <rdf:RDF>
      <cc:Work
         rdf:about="">
        <dc:format>image/svg+xml</dc:format>
        <dc:type
           rdf:resource="http://purl.org/dc/dcmitype/StillImage" />
        <dc:creator>
          <cc:Agent>
            <dc:title>Maurizio Monge</dc:title>
          </cc:Agent>
        </dc:creator>
        <dc:rights>
          <cc:Agent>
            <dc:title>Maurizio Monge</dc:title>
          </cc:Agent>
        </dc:rights>
        <cc:license
           rdf:resource="http://creativecommons.org/licenses/GPL/2.0/" />
      </cc:Work>
      <cc:License
         rdf:about="http://creativecommons.org/licenses/GPL/2.0/">
        <cc:permits
           rdf:resource="http://web.resource.org/cc/Reproduction" />
        <cc:permits
           rdf:resource="http://web.resource.org/cc/Distribution" />
        <cc:requires
           rdf:resource="http://web.resource.org/cc/Notice" />
        <cc:permits
           rdf:resource="http://web.resource.org/cc/DerivativeWorks" />
        <cc:requires
           rdf:resource="http://web.resource.org/cc/ShareAlike" />
        <cc:requires
           rdf:resource="http://web.resource.org/cc/SourceCode" />
      </cc:License>
    </rdf:RDF>
  </metadata>
  <path
     id="boundary"
     class="base stroke-color stroke-boundary"
     style="fill:none"
     d="M 390.79948,67.805777 C 372.1463,64.764312 379.19513,130.03645 368.70227,154.32769 350.7021,137.81183 335.61399,98.457507 296.46987,91.476806 c -9.90969,33.000044 17.35445,83.555564 6.96954,96.577634 -55.27927,69.31701 -43.96066,70.98676 -72.80619,147.42189 -14.34125,38.00158 -51.39201,103.88929 -87.88057,146.67595 -35.03681,41.08437 -40.06646,91.51587 -23.80012,109.04946 33.53074,36.14301 73.65948,20.56396 94.11647,-3.17637 -6.97248,14.22956 -13.13233,32.47747 -4.34444,39.28027 20.38159,15.77761 147.55574,-99.53787 161.57204,-94.1841 91.52324,34.95883 184.3185,-34.45846 184.09343,-114.71566 2.64571,59.6688 -8.43897,99.6647 -68.97611,140.36423 -58.93984,39.62564 -179.26258,119.58568 -207.75422,233.82288 -5.97399,23.95267 8.36908,64.03357 39.34993,64.52718 127.86268,2.03718 280.07119,2.57158 407.20688,0.21311 C 827.21826,855.42252 830.23139,265.64572 461.67936,152.22924 430.90818,127.39346 409.45266,70.84722 390.79948,67.805777 Z M 632.27225,169.2668 c 19.11966,1.19732 -52.46177,-28.56085 -61.79756,-40.46063 -4.05025,-5.16263 -16.03917,-6.93359 -30.20202,-6.8097 -31.15827,0.27255 -72.8408,9.71575 -63.67878,12.40213 m 230.61169,128.62606 c 15.60507,9.93085 31.25858,-30.1303 21.33282,-30.1303 -14.93315,0 -40.2902,7.00597 -35.70224,-9.85696 5.03531,-18.5072 -18.25749,-24.22984 -41.78446,-24.54811 -23.52699,-0.31829 -47.28958,4.76859 -43.19231,7.88351 m 164.07214,166.27511 c 22.33594,7.44054 -1.04175,-19.22547 -12.31196,-32.93576 -11.27032,-13.71028 7.70143,-19.84996 6.37319,-28.54622 -3.21224,-21.03135 -38.45595,-24.47675 -59.22777,-24.24687 M 780.15318,471.408 c 7.88919,15.59208 39.63192,13.55807 53.31975,8.98192 18.44311,-6.16596 -44.58852,-25.31424 -30.38646,-54.50834 7.86519,-16.16787 -44.59341,-32.19518 -55.91208,-32.60376"
     sodipodi:nodetypes="sccsssscsscsssscscssccsssccssccssc" />
  <path
     class="base stroke-color stroke-medium"
     style="fill:url(#body-gradient)"
     d="m 554.38993,418.40578 c 0.22507,80.25728 -92.5691,149.67419 -184.09243,114.71531 -14.01632,-5.35377 -141.19182,109.96194 -161.57343,94.18431 -16.07923,-12.44711 17.81424,-63.75972 15.35021,-57.20591 -11.73212,31.20486 -63.52713,65.93741 -105.12167,21.10239 -16.26635,-17.5336 -11.23621,-67.96451 23.80065,-109.04892 36.48858,-42.78671 73.53821,-108.67536 87.87947,-146.67697 28.84556,-76.43519 17.52773,-78.10475 72.80706,-147.42182 10.3849,-13.02208 -16.88051,-63.57829 -6.97081,-96.578356 39.14416,6.980711 54.23397,46.336266 72.23415,62.852136 10.49287,-24.29126 3.4424,-89.562704 22.09559,-86.521239 18.65321,3.041443 40.10927,59.587009 70.88047,84.422799 C 830.2316,265.6461 827.2189,855.42221 724.21704,857.33297 597.08123,859.69144 444.87161,859.15769 317.0088,857.1205 286.02792,856.6269 271.68616,816.54569 277.66015,792.59299 306.15183,678.35567 426.4747,598.39592 485.4146,558.77024 c 60.5372,-40.69956 71.62104,-80.69561 68.97533,-140.36446 z"
     id="body"
     sodipodi:nodetypes="csssssssccscssssc" />
  <path
     class="base stroke-color stroke-medium"
     style="fill:none"
     d="m 361.77005,305.39424 c -30.50384,-5.62941 -57.25045,3.22968 -79.33904,25.21374"
     id="eyebrow"
     sodipodi:nodetypes="cs" />
  <path
     class="base stroke-color stroke-medium"
     style="fill:none"
     d="m 312.59461,338.65868 c 10.95707,11.16424 24.9021,11.62977 27.19955,-7.341"
     id="eye"
     sodipodi:nodetypes="cs" />
  <path
     class="base stroke-color stroke-medium"
     style="fill:none"
     d="m 157.97422,540.62033 c -14.53675,-5.02086 -25.05352,18.40017 -15.77842,19.3557"
     id="nose"
     sodipodi:nodetypes="cs" />
  <path
     class="base stroke-color stroke-medium"
     style="fill:none"
     d="m 332.25526,494.47003 9.95452,12.37086"
     id="cheek1"
     sodipodi:nodetypes="cc" />
  <path
     class="base stroke-color stroke-medium"
     style="fill:none"
     d="m 554.5613,384.22991 0.30508,-26.1444"
     id="cheek2"
     sodipodi:nodetypes="cc" />
  <path
     class="base stroke-color stroke-medium"
     style="fill:none"
     d="m 341.70101,167.47474 -10.61092,5.54093"
     id="ear-right"
     sodipodi:nodetypes="cs" />
  <path
     class="base stroke-color stroke-medium"
     style="fill:none"
     d="m 397.72045,111.05193 c 31.63639,44.19337 43.05912,53.133 5.44177,46.79212"
     id="ear-left"
     sodipodi:nodetypes="cs" />
  <path
     class="base stroke-color stroke-medium"
     style="fill:none"
     d="M 459.49546,762.22821 432.44674,826.7473"
     id="leg-line" />
  <path
     class="base stroke-color stroke-medium"
     style="fill:url(#hair1-gradient)"
     d="m 476.59424,134.39959 c 90.834,26.63339 75.51341,7.4099 94.67054,38.60704 10.73281,17.47825 25.60475,-5.9573 61.00808,-3.74028 19.11968,1.1973 -52.46203,-28.56106 -61.79781,-40.46085 -12.96087,-16.52047 -107.2074,1.6866 -93.88081,5.59409 z"
     id="hair1"
     sodipodi:nodetypes="cssss" />
  <path
     class="base stroke-color stroke-medium"
     style="fill:url(#hair2-gradient)"
     d="m 607.85996,206.37265 c 28.53062,21.69019 49.42863,-0.3406 48.30159,37.29549 -0.77384,25.84183 34.10605,8.57614 51.04477,19.35573 15.60509,9.93085 31.25713,-30.1287 21.33136,-30.1287 -14.93316,0 -40.29025,7.00585 -35.70229,-9.8571 10.07064,-37.01443 -93.16998,-22.89526 -84.97543,-16.66542 z"
     id="hair2"
     sodipodi:nodetypes="csssss" />
  <path
     class="base stroke-color stroke-medium"
     style="fill:url(#hair3-gradient)"
     d="m 691.77695,288.20482 c 5.55338,1.94281 35.80016,22.42156 34.39967,32.15994 -7.22357,50.22924 29.81438,46.97341 45.754,52.28322 22.33596,7.44055 -1.04087,-19.22571 -12.31109,-32.936 -11.27033,-13.7103 7.70132,-19.84903 6.37309,-28.54531 -4.67237,-30.59108 -77.11504,-23.97616 -74.21567,-22.96185 z"
     id="hair3"
     sodipodi:nodetypes="csssss" />
  <path
     class="base stroke-color stroke-medium"
     style="fill:url(#hair4-gradient)"
     d="m 745.13853,394.10445 c 5.30708,9.25388 17.7509,19.7349 21.69545,34.25168 3.94466,14.5168 5.42962,27.45909 13.31883,43.05119 7.88921,15.59209 39.63153,13.55961 53.31936,8.98345 18.44314,-6.16596 -44.58799,-25.31457 -30.38593,-54.50869 8.9888,-18.4776 -60.81176,-36.77172 -57.94771,-31.77763 z"
     id="hair4"
     sodipodi:nodetypes="csssss" />
</svg>
