<?xml version="1.0" encoding="UTF-8" standalone="no"?>
<!-- Created with Inkscape (http://www.inkscape.org/) -->

<svg
   width="700pt"
   height="700pt"
   id="pawn"
   viewBox="0 0 933.333 933.333"
   sodipodi:version="0.32"
   inkscape:version="1.2.1 (9c6d41e410, 2022-07-14)"
   version="1.0"
   inkscape:export-filename="/home/maurizio/out/wp.png"
   inkscape:export-xdpi="90"
   inkscape:export-ydpi="90"
   sodipodi:docname="wp.svg"
   xmlns:inkscape="http://www.inkscape.org/namespaces/inkscape"
   xmlns:sodipodi="http://sodipodi.sourceforge.net/DTD/sodipodi-0.dtd"
   xmlns:xlink="http://www.w3.org/1999/xlink"
   xmlns="http://www.w3.org/2000/svg"
   xmlns:svg="http://www.w3.org/2000/svg"
   xmlns:rdf="http://www.w3.org/1999/02/22-rdf-syntax-ns#"
   xmlns:cc="http://creativecommons.org/ns#"
   xmlns:dc="http://purl.org/dc/elements/1.1/">
  <style
     id="style-base">
    .base { 
      fill-opacity:1;
      fill-rule:evenodd;
      stroke-miterlimit:4;
      stroke-dasharray:none;
      stroke-linecap:round;
      stroke-linejoin:round;
      stroke-opacity:1
    }
  </style>
  <style
     id="stroke-medium">
    .stroke-medium {
      stroke-width: 18;
    }
  </style>
  <style
     id="stroke-boundary">
    .stroke-boundary {
      stroke-width: 30;
    }
  </style>
  <style
     id="stroke-color">
    .stroke-color {
      stroke:#ff0000;
    }
  </style>
  <style
     id="fill-color">
    .fill-color {
      fill:#00ff00;
    }
  </style>
  <defs
     id="defs36222">
    <linearGradient
       id="fillGradient">
      <stop
         style="stop-color:#ffffff;stop-opacity:1;"
         offset="0"
         id="stop0" />
      <stop
         style="stop-color:#00ffff;stop-opacity:1"
         offset="1"
         id="stop1" />
    </linearGradient>
    <linearGradient
       inkscape:collect="always"
       xlink:href="#fillGradient"
       id="head-gradient"
       x1="586.52576"
       y1="328.04306"
       x2="1126.0223"
       y2="534.203"
       gradientUnits="userSpaceOnUse"
       gradientTransform="matrix(0.734473,0,0,0.735993,-84.6603,46.4359)" />
    <linearGradient
       inkscape:collect="always"
       xlink:href="#fillGradient"
       id="shoulders-gradient"
       x1="275.24356"
       y1="458.6561"
       x2="862.65161"
       y2="560.7475"
       gradientUnits="userSpaceOnUse"
       gradientTransform="translate(36,16)" />
    <linearGradient
       inkscape:collect="always"
       xlink:href="#fillGradient"
       id="pawn-body-gradient"
       x1="300.27295"
       y1="623.78223"
       x2="774.0462"
       y2="764.89874"
       gradientUnits="userSpaceOnUse"
       gradientTransform="translate(36,16)" />
  </defs>
  <sodipodi:namedview
     id="base"
     pagecolor="#ffffff"
     bordercolor="#666666"
     borderopacity="1.0"
     inkscape:pageopacity="0.0"
     inkscape:pageshadow="2"
     inkscape:zoom="0.42426406"
     inkscape:cx="622.25398"
     inkscape:cy="494.97476"
     inkscape:current-layer="layer1"
     inkscape:document-units="px"
     inkscape:window-width="1243"
     inkscape:window-height="811"
     inkscape:window-x="242"
     inkscape:window-y="91"
     inkscape:showpageshadow="2"
     inkscape:pagecheckerboard="0"
     inkscape:deskcolor="#d1d1d1"
     showgrid="false"
     inkscape:window-maximized="0" />
  <metadata
     id="metadata36225">
    <rdf:RDF>
      <cc:Work
         rdf:about="">
        <dc:format>image/svg+xml</dc:format>
        <dc:type
           rdf:resource="http://purl.org/dc/dcmitype/StillImage" />
        <dc:rights>
          <cc:Agent>
            <dc:title>Maurizio Monge</dc:title>
          </cc:Agent>
        </dc:rights>
        <dc:creator>
          <cc:Agent>
            <dc:title>Maurizio Monge</dc:title>
          </cc:Agent>
        </dc:creator>
        <cc:license
           rdf:resource="http://creativecommons.org/licenses/GPL/2.0/" />
      </cc:Work>
      <cc:License
         rdf:about="http://creativecommons.org/licenses/GPL/2.0/">
        <cc:permits
           rdf:resource="http://web.resource.org/cc/Reproduction" />
        <cc:permits
           rdf:resource="http://web.resource.org/cc/Distribution" />
        <cc:requires
           rdf:resource="http://web.resource.org/cc/Notice" />
        <cc:permits
           rdf:resource="http://web.resource.org/cc/DerivativeWorks" />
        <cc:requires
           rdf:resource="http://web.resource.org/cc/ShareAlike" />
        <cc:requires
           rdf:resource="http://web.resource.org/cc/SourceCode" />
      </cc:License>
    </rdf:RDF>
  </metadata>
  <path
     id="boundary"
     class="base stroke-color stroke-boundary"
     style="fill:none"
     d="M 473.53906 210.80859 A 122.41217 110.39895 0 0 0 351.12695 321.20703 A 122.41217 110.39895 0 0 0 473.53906 431.60547 A 122.41217 110.39895 0 0 0 595.95117 321.20703 A 122.41217 110.39895 0 0 0 473.53906 210.80859 z M 469.82031 434.57422 C 439.48973 434.88275 411.12281 439.79979 376.35352 448.73438 C 302.15881 467.80003 276.24414 514.75391 276.24414 514.75391 L 432.58203 514.75391 C 423.57471 659.70231 343.99848 706.00689 305.45117 733.25586 C 271.25928 757.426 279.98668 815.59718 325.35547 818.56641 C 353.46829 820.40629 601.96975 820.92928 631.00781 817.72461 C 682.38851 812.05419 683.85369 751.02406 650.69531 730.41211 C 601.34889 699.73733 524.75428 665.4204 513.54102 514.75391 L 685.08984 514.75391 C 685.08984 514.75391 641.65693 462.91919 575.06445 448.07031 C 532.44441 438.56684 500.1509 434.26569 469.82031 434.57422 z " />
  <ellipse
     class="base stroke-color stroke-medium"
     style="fill:url(#head-gradient)"
     id="head"
     cx="473.53918"
     cy="321.20663"
     rx="122.41217"
     ry="110.39895" />
  <path
     class="base stroke-color stroke-medium"
     style="fill:url(#pawn-body-gradient)"
     d="m 433.41688,483.01055 c 1.4689,170.17424 -86.73292,221.0978 -127.96659,250.24575 -34.19193,24.17016 -25.46292,82.34183 19.90591,85.31106 28.11285,1.83989 276.61278,2.36096 305.65087,-0.84371 51.38075,-5.67043 52.8459,-66.69909 19.68749,-87.31106 -52.60851,-32.70256 -136.19074,-69.53762 -138.49775,-247.08944 -0.44112,-33.31211 -79.04138,-30.00907 -78.77993,-0.3126 z"
     id="pawn-body"
     sodipodi:nodetypes="cssssss" />
  <path
     class="base stroke-color stroke-medium"
     style="fill:url(#shoulders-gradient)"
     d="m 376.35321,448.73487 c -74.19478,19.06567 -100.10965,66.01908 -100.10965,66.01908 h 408.84622 c 0,0 -43.43216,-51.83544 -110.0247,-66.68433 -85.24018,-19.00696 -129.17322,-17.20394 -198.71187,0.66525 z"
     id="shoulders"
     sodipodi:nodetypes="cccss" />
  <path
     class="base stroke-color stroke-medium"
     style="fill:none"
     d="M 379.12098,727.67467 H 567.02381"
     id="lower-line"
     sodipodi:nodetypes="cc" />
</svg>
